<svg width="18.000000" height="14.705322" viewBox="0 0 18 14.7053" fill="none" xmlns="http://www.w3.org/2000/svg" xmlns:xlink="http://www.w3.org/1999/xlink">
	<desc>
			Created with Pixso.
	</desc>
	<defs/>
	<path id="XMLID_874_" d="M17.1211 7.37622L17.1211 7.0332C17.1211 6.40186 16.793 5.84546 16.3008 5.52393L16.3008 1.78442C16.3008 0.800537 15.5 0 14.5156 0L3.48438 0C2.5 0 1.69922 0.800537 1.69922 1.78442L1.69922 5.52368C1.20703 5.84546 0.878906 6.40186 0.878906 7.0332L0.878906 7.37598C0.375 7.50903 0 7.96973 0 8.51587L0 12.5271C0 13.1582 0.5 13.6748 1.12109 13.7041L1.12109 14.179C1.12109 14.4695 1.35938 14.7053 1.64844 14.7053C1.94141 14.7053 2.17578 14.4695 2.17578 14.179L2.17578 13.7056L15.8242 13.7056L15.8242 14.179C15.8242 14.4695 16.0586 14.7053 16.3516 14.7053C16.6406 14.7053 16.8789 14.4695 16.8789 14.179L16.8789 13.7041C17.5 13.6748 18 13.1582 18 12.5271L18 8.51587C18 7.96948 17.625 7.50903 17.1211 7.37622ZM2.75 1.78442C2.75 1.38086 3.07812 1.05273 3.48438 1.05273L14.5156 1.05273C14.9219 1.05273 15.25 1.38086 15.25 1.78442L15.25 5.23193L14.5469 5.23193L14.5469 4.3042C14.5469 3.65503 14.0195 3.12671 13.3672 3.12671L10.5352 3.12671C9.88672 3.12671 9.35938 3.65503 9.35938 4.3042L9.35938 5.23193L8.64062 5.23193L8.64062 4.3042C8.64062 3.65503 8.11328 3.12671 7.46484 3.12671L4.63281 3.12671C3.98047 3.12671 3.45312 3.65503 3.45312 4.3042L3.45312 5.23193L2.75 5.23193L2.75 1.78442ZM13.4922 4.3042L13.4922 5.10693C13.4922 5.17603 13.4375 5.23193 13.3672 5.23193L10.5352 5.23193C10.4688 5.23193 10.4102 5.17578 10.4102 5.10693L10.4102 4.3042C10.4102 4.23535 10.4688 4.1792 10.5352 4.1792L13.3672 4.1792C13.4375 4.1792 13.4922 4.23535 13.4922 4.3042ZM7.58984 4.3042L7.58984 5.10693C7.58984 5.17603 7.53125 5.23193 7.46484 5.23193L4.63281 5.23193C4.5625 5.23193 4.50781 5.17578 4.50781 5.10693L4.50781 4.3042C4.50781 4.23535 4.5625 4.1792 4.63281 4.1792L7.46484 4.1792C7.53125 4.1792 7.58984 4.23535 7.58984 4.3042ZM1.92969 7.0332C1.92969 6.62036 2.26562 6.28467 2.67969 6.28467L15.3203 6.28467C15.7344 6.28467 16.0703 6.62061 16.0703 7.0332L16.0703 7.3374L1.92969 7.3374L1.92969 7.0332ZM16.9492 12.5271C16.9492 12.5964 16.8906 12.6528 16.8203 12.6528L1.17969 12.6528C1.10938 12.6528 1.05078 12.5964 1.05078 12.5271L1.05078 8.51587C1.05078 8.44653 1.10938 8.38989 1.17969 8.38989L16.8203 8.38989C16.8906 8.38989 16.9492 8.44653 16.9492 8.51587L16.9492 12.5271L16.9492 12.5271Z" fill="#FFFFFF" fill-opacity="1.000000" fill-rule="nonzero"/>
</svg>
