<svg width="14.609375" height="18.000000" viewBox="0 0 14.6094 18" fill="none" xmlns="http://www.w3.org/2000/svg" xmlns:xlink="http://www.w3.org/1999/xlink">
	<desc>
			Created with Pixso.
	</desc>
	<defs/>
	<path id="Vector" d="M14.082 0L0.527344 0C0.234375 0 0 0.236084 0 0.527344L0 17.4727C0 17.6859 0.128906 17.8782 0.324219 17.9598C0.523438 18.0415 0.75 17.9963 0.898438 17.8456L7.30469 11.4403L13.7109 17.8456C13.8633 17.9963 14.0898 18.0415 14.2852 17.9598C14.4844 17.8782 14.6094 17.6859 14.6094 17.4727L14.6094 0.527344C14.6094 0.236084 14.375 0 14.082 0ZM13.5547 16.1996L7.67969 10.3217C7.57422 10.2188 7.44141 10.1672 7.30469 10.1672C7.17188 10.1672 7.03516 10.2188 6.93359 10.3217L1.05469 16.1996L1.05469 1.05469L13.5547 1.05469L13.5547 16.1996Z" fill="#000000" fill-opacity="1.000000" fill-rule="nonzero"/>
</svg>
