<svg width="20.000000" height="20.000000" viewBox="0 0 20 20" fill="none" xmlns="http://www.w3.org/2000/svg" xmlns:xlink="http://www.w3.org/1999/xlink">
	<desc>
			Created with Pixso.
	</desc>
	<defs/>
	<path id="Vector" d="M20 9.96826C19.9648 7.33899 18.8945 4.85461 16.9922 2.97241C15.0508 1.05566 12.4883 0 9.77734 0C7.16406 0 4.71484 0.994507 2.88672 2.80042C1.26562 4.40283 0.269531 6.54016 0.0820312 8.8186C-0.0898438 10.9803 0.464844 13.1678 1.65625 15.0072L0.03125 19.3446C-0.0390625 19.5267 0.0117188 19.7314 0.152344 19.8655C0.246094 19.9535 0.367188 20 0.492188 20C0.558594 20 0.621094 19.9814 0.683594 19.9554L4.91406 18.177C6.53125 19.17 8.37891 19.6818 10.2734 19.6818L10.2734 19.6818C12.8906 19.6818 15.3359 18.6991 17.1641 16.8934C19.0273 15.054 20.0352 12.6022 20 9.96826ZM16.4688 16.2173C14.8281 17.8392 12.625 18.7324 10.2734 18.7324C8.48047 18.7323 6.73828 18.2144 5.23438 17.2344C5.15234 17.1813 5.05859 17.1543 4.96094 17.1543C4.89844 17.1543 4.83203 17.167 4.76953 17.1929L1.35156 18.6257L2.66406 15.1144C2.71875 14.9674 2.69922 14.8032 2.61328 14.6735C0.195312 11.1362 0.601562 6.43225 3.58203 3.4884C5.22656 1.86633 7.42578 0.973022 9.77734 0.973022C12.2266 0.973022 14.5391 1.92749 16.293 3.66052C18.0156 5.36218 18.9844 7.60681 19.0156 9.98083C19.0469 12.3501 18.1406 14.5649 16.4688 16.2173Z" fill="#000000" fill-opacity="1.000000" fill-rule="nonzero"/>
</svg>
