<svg width="20.000000" height="20.000000" viewBox="0 0 20 20" fill="none" xmlns="http://www.w3.org/2000/svg" xmlns:xlink="http://www.w3.org/1999/xlink">
	<desc>
			Created with Pixso.
	</desc>
	<defs>
		<clipPath id="clip1_13648">
			<rect id="placeholder 1" width="20.000000" height="20.000000" fill="white" fill-opacity="0"/>
		</clipPath>
		<clipPath id="clip1_13646">
			<rect id="send (3) 2" width="20.000000" height="20.000000" fill="white" fill-opacity="0"/>
		</clipPath>
	</defs>
	<rect id="send (3) 2" width="20.000000" height="20.000000" fill="#FFFFFF" fill-opacity="0"/>
	<g clip-path="url(#clip1_13646)">
		<rect id="placeholder 1" width="20.000000" height="20.000000" fill="#FFFFFF" fill-opacity="0"/>
		<g clip-path="url(#clip1_13648)">
			<path id="Vector" d="M9.75391 3.90637C8.24609 3.89563 7.01172 5.11243 7 6.62012C6.98828 8.12781 8.20703 9.36365 9.71484 9.375C9.72266 9.375 9.72656 9.37512 9.73438 9.37512C11.2344 9.37512 12.457 8.16199 12.4688 6.66113C12.4805 5.15356 11.2617 3.91772 9.75391 3.90637ZM9.73438 8.59387C9.73047 8.59387 9.72656 8.59387 9.71875 8.59375C8.64453 8.58569 7.77344 7.70288 7.78125 6.62598C7.78906 5.55396 8.66406 4.6875 9.73438 4.6875C9.73828 4.6875 9.74609 4.6875 9.75 4.6875C10.8242 4.69568 11.6953 5.57837 11.6875 6.65527C11.6797 7.72742 10.8047 8.59387 9.73438 8.59387Z" fill="#000000" fill-opacity="1.000000" fill-rule="nonzero"/>
			<path id="Vector" d="M6.96875 6.01013Q6.90234 6.30737 6.89844 6.61938Q6.89844 6.93054 6.96094 7.22778Q7.01562 7.48059 7.11328 7.72339Q7.21484 7.96033 7.35156 8.17261Q7.50781 8.41711 7.71484 8.62891Q7.92578 8.84058 8.16797 9.00171Q8.375 9.1416 8.61328 9.24353Q8.85547 9.3479 9.10547 9.40527Q9.40234 9.47266 9.71484 9.47498L9.72266 9.4751L9.73438 9.4751Q10.043 9.4751 10.3398 9.41077Q10.5898 9.35583 10.832 9.25427Q11.0664 9.15515 11.2773 9.01807Q11.5195 8.86011 11.7305 8.65186Q11.9414 8.44348 12.1016 8.20178Q12.2383 7.99231 12.3398 7.75793Q12.4414 7.51782 12.5 7.26733Q12.5664 6.97192 12.5703 6.66187Q12.5703 6.35095 12.5078 6.05371Q12.4531 5.80078 12.3555 5.55798Q12.2539 5.32104 12.1172 5.10889Q11.9609 4.86426 11.7539 4.65247Q11.543 4.4408 11.3008 4.27966Q11.0938 4.13965 10.8555 4.03772Q10.6133 3.93347 10.3633 3.8761Q10.0664 3.80872 9.75391 3.80627Q9.44141 3.80408 9.14453 3.8678Q8.89453 3.92126 8.65234 4.02148Q8.41406 4.12012 8.19922 4.25757Q7.95703 4.41479 7.74609 4.62256Q7.53516 4.83093 7.375 5.073Q7.23438 5.2832 7.13281 5.5188Q7.02734 5.75916 6.96875 6.01013ZM9.75391 3.90637C8.24609 3.89563 7.01172 5.11243 7 6.62012C6.98828 8.12781 8.20703 9.36365 9.71484 9.375L9.73438 9.37512C11.2344 9.37512 12.457 8.16199 12.4688 6.66113C12.4805 5.15356 11.2617 3.91772 9.75391 3.90637ZM9.73438 8.59387L9.71875 8.59375C8.64453 8.58569 7.77344 7.70288 7.78125 6.62598C7.78906 5.55396 8.66406 4.6875 9.73438 4.6875L9.75 4.6875C10.8242 4.69568 11.6953 5.57837 11.6875 6.65527C11.6797 7.72742 10.8047 8.59387 9.73438 8.59387ZM9.71875 8.49377L9.71875 8.49377Q9.51562 8.49219 9.32031 8.44763Q9.15625 8.41016 9 8.34253Q8.84766 8.27637 8.71094 8.18555Q8.55078 8.07971 8.41406 7.94055Q8.27734 7.80115 8.17578 7.64001Q8.08594 7.50208 8.02344 7.34839Q7.95703 7.19092 7.92188 7.0271Q7.87891 6.83154 7.88281 6.62671Q7.88281 6.42249 7.92578 6.22791Q7.96484 6.0658 8.03125 5.9104Q8.09766 5.75806 8.1875 5.62183Q8.29297 5.46277 8.42969 5.32568Q8.56641 5.18872 8.72656 5.08508Q8.86328 4.99609 9.01562 4.93176Q9.17578 4.86548 9.33984 4.82971Q9.53125 4.78748 9.73438 4.78748L9.74219 4.78748L9.75 4.78748Q9.95312 4.78906 10.1484 4.83362Q10.3125 4.87097 10.4688 4.93872Q10.6211 5.00488 10.7578 5.0957Q10.918 5.20154 11.0547 5.34082Q11.1914 5.48022 11.293 5.64136Q11.3828 5.77917 11.4453 5.93298Q11.5117 6.09033 11.5469 6.25427Q11.5898 6.44983 11.5859 6.65454Q11.5859 6.85889 11.543 7.05334Q11.5039 7.21558 11.4375 7.37097Q11.3711 7.52332 11.2812 7.65955Q11.1758 7.8186 11.0391 7.95557Q10.9023 8.09265 10.7422 8.19629Q10.6055 8.28516 10.4531 8.34961Q10.293 8.41577 10.1289 8.45166Q9.9375 8.4939 9.73438 8.4939L9.72656 8.4939L9.71875 8.49377Z" fill="#000000" fill-opacity="1.000000" fill-rule="evenodd"/>
			<path id="Vector" d="M12.0391 14.7048C14.6367 11.3605 16.2578 9.61646 16.2812 6.69055C16.3086 3.00916 13.3203 0 9.64062 0C6.00391 0 3.02734 2.94641 3 6.59094C2.97656 9.59619 4.63281 11.3378 7.24609 14.7042C4.64453 15.0931 3 16.0704 3 17.2656C3 18.0663 3.74219 18.7848 5.08594 19.2887C6.30859 19.7474 7.92578 20 9.64062 20C11.3555 20 12.9727 19.7474 14.1992 19.2887C15.543 18.7848 16.2812 18.0663 16.2812 17.2656C16.2812 16.071 14.6367 15.094 12.0391 14.7048ZM3.78125 6.5968C3.80469 3.38086 6.42969 0.78125 9.64062 0.78125C12.8867 0.78125 15.5234 3.43701 15.5 6.68469C15.4805 9.46338 13.7578 11.1758 11.0078 14.7595C10.5195 15.3984 10.0664 16.0024 9.64062 16.5934C9.21484 16.0022 8.77344 15.4089 8.27734 14.7593C5.41406 11.0255 3.76172 9.4425 3.78125 6.5968ZM9.64062 19.2188C6.28906 19.2188 3.78125 18.1876 3.78125 17.2656C3.78125 16.5819 5.28125 15.7181 7.79688 15.4191C8.35547 16.1495 8.84375 16.8132 9.32031 17.4911C9.39453 17.5946 9.51562 17.6562 9.64062 17.6562C9.64062 17.6562 9.64062 17.6562 9.64062 17.6562C9.76562 17.6562 9.88672 17.5948 9.96094 17.4916C10.4336 16.8226 10.9336 16.1426 11.4883 15.4194C14.0039 15.7189 15.5 16.5824 15.5 17.2657C15.5 18.1876 12.9961 19.2188 9.64062 19.2188Z" fill="#000000" fill-opacity="1.000000" fill-rule="nonzero"/>
			<path id="Vector" d="M16.2812 6.69055C16.3086 3.00916 13.3203 0 9.64062 0C6.00391 0 3.02734 2.94641 3 6.59094C2.97656 9.59619 4.63281 11.3378 7.24609 14.7042C4.64453 15.0931 3 16.0704 3 17.2656C3 18.0663 3.74219 18.7848 5.08594 19.2887C6.30859 19.7474 7.92578 20 9.64062 20C11.3555 20 12.9727 19.7474 14.1992 19.2887C15.543 18.7848 16.2812 18.0663 16.2812 17.2656C16.2812 16.071 14.6367 15.094 12.0391 14.7048C14.6367 11.3605 16.2578 9.61646 16.2812 6.69055ZM9.64062 0.78125C12.8867 0.78125 15.5234 3.43701 15.5 6.68469C15.4805 9.46338 13.7578 11.1758 11.0078 14.7595C10.5195 15.3984 10.0664 16.0024 9.64062 16.5934C9.21484 16.0022 8.77344 15.4089 8.27734 14.7593C5.41406 11.0255 3.76172 9.4425 3.78125 6.5968C3.80469 3.38086 6.42969 0.78125 9.64062 0.78125ZM3.78125 17.2656C3.78125 16.5819 5.28125 15.7181 7.79688 15.4191C8.35547 16.1495 8.84375 16.8132 9.32031 17.4911C9.39453 17.5946 9.51562 17.6562 9.64062 17.6562C9.64062 17.6562 9.64062 17.6562 9.64062 17.6562C9.76562 17.6562 9.88672 17.5948 9.96094 17.4916C10.4336 16.8225 10.9336 16.1426 11.4883 15.4194C14.0039 15.7189 15.5 16.5824 15.5 17.2657C15.5 18.1876 12.9961 19.2188 9.64062 19.2188C6.28906 19.2188 3.78125 18.1876 3.78125 17.2656Z" stroke="#000000" stroke-opacity="1.000000" stroke-width="0.200000"/>
		</g>
	</g>
</svg>
