<?xml version="1.0" encoding="utf-8"?>
<!-- Generator: Adobe Illustrator 27.5.0, SVG Export Plug-In . SVG Version: 6.00 Build 0)  -->
<svg version="1.1" xmlns="http://www.w3.org/2000/svg" xmlns:xlink="http://www.w3.org/1999/xlink" x="0px" y="0px"
	 viewBox="0 0 500 500" style="enable-background:new 0 0 500 500;" xml:space="preserve">
<g id="BACKGROUND">
	<rect style="fill:#FFFFFF;" width="500" height="500"/>
</g>
<g id="OBJECTS">
	<text transform="matrix(1 0 0 1 157.2775 252.8926)" style="fill:#222221; font-family:'Aldrich-Regular'; font-size:57.2049px;">Dubai</text>
	<text transform="matrix(1 0 0 1 159.5852 274.9023)" style="font-family:'Aldrich-Regular'; font-size:19.9073px;">real estate agents</text>
	<g>
		<polygon style="fill:#D9D9D9;" points="89.437,238.45 89.437,274.903 80.776,274.903 80.776,246.322 		"/>
		<polygon style="fill:#222221;" points="89.437,238.45 89.437,274.903 98.098,274.903 98.098,244.549 		"/>
		<polygon style="fill:#D9D9D9;" points="106.503,223.561 106.503,274.903 94.955,274.903 94.955,234.428 		"/>
		<polygon style="fill:#222221;" points="106.503,223.561 106.503,274.903 118.051,274.903 118.051,231.693 		"/>
		<polygon style="fill:#D9D9D9;" points="127.833,203.708 127.833,274.903 112.277,274.903 112.277,219.967 		"/>
		<polygon style="fill:#222221;" points="127.833,203.708 127.833,274.903 143.389,274.903 143.389,219.967 		"/>
	</g>
</g>
</svg>
