<?xml version="1.0" encoding="utf-8"?>
<!-- Generator: Adobe Illustrator 27.5.0, SVG Export Plug-In . SVG Version: 6.00 Build 0)  -->
<svg version="1.1" id="Layer_1" xmlns="http://www.w3.org/2000/svg" xmlns:xlink="http://www.w3.org/1999/xlink" x="0px" y="0px"
	 viewBox="0 0 288 288" style="enable-background:new 0 0 288 288;" xml:space="preserve">
<g id="Film_01">
</g>
<g id="New_Symbol_8">
</g>
<g>
	<rect y="0" style="fill-rule:evenodd;clip-rule:evenodd;fill:#FAFAFA;" width="288" height="288"/>
	<rect y="144" style="fill-rule:evenodd;clip-rule:evenodd;fill:#181C21;" width="288" height="144"/>
	<rect y="0" style="fill-rule:evenodd;clip-rule:evenodd;fill:#FFFFFF;" width="288" height="144"/>
	<g>
		<g>
			<g>
				<path style="fill:#181C21;" d="M107.047,111.737v-8.274h3.529c1.574,0,2.361,0.662,2.361,1.985c0,1.076-0.77,1.872-2.309,2.39
					l2.84,3.9h-1.411l-2.633-3.721v-0.7c1.581-0.251,2.372-0.858,2.372-1.822c0-0.764-0.439-1.146-1.318-1.146h-2.361v7.389H107.047
					z"/>
				<path style="fill:#181C21;" d="M120.008,103.463v0.868h-4.34v2.777h4.138v0.868h-4.138v2.893h4.427v0.868h-5.497v-8.274H120.008
					z"/>
				<path style="fill:#181C21;" d="M121.987,111.737h-1.111l3.513-8.274h1.186l3.529,8.274h-1.186l-1.07-2.604h-2.736l0.295-0.868
					h2.082l-1.545-3.749L121.987,111.737z"/>
				<path style="fill:#181C21;" d="M131.303,103.463v7.406h4.328v0.868h-5.398v-8.274H131.303z"/>
				<path style="fill:#181C21;" d="M145.207,103.463v0.868h-4.34v2.777h4.138v0.868h-4.138v2.893h4.427v0.868h-5.497v-8.274H145.207
					z"/>
				<path style="fill:#181C21;" d="M146.799,111.448v-0.983c0.867,0.309,1.805,0.463,2.813,0.463c1.423,0,2.135-0.521,2.135-1.563
					c0-0.887-0.525-1.331-1.574-1.331h-1.064c-1.732,0-2.598-0.752-2.598-2.257c0-1.582,1.108-2.372,3.326-2.372
					c0.965,0,1.861,0.116,2.691,0.347v0.983c-0.83-0.309-1.727-0.463-2.691-0.463c-1.504,0-2.256,0.501-2.256,1.504
					c0,0.887,0.509,1.331,1.527,1.331h1.064c1.763,0,2.645,0.752,2.645,2.256c0,1.62-1.068,2.431-3.205,2.431
					C148.604,111.795,147.666,111.679,146.799,111.448z"/>
				<path style="fill:#181C21;" d="M159.963,103.463v0.868h-2.605v7.406h-1.07v-7.406h-2.604v-0.868H159.963z"/>
				<path style="fill:#181C21;" d="M160.64,111.737h-1.111l3.513-8.274h1.185l3.529,8.274h-1.186l-1.07-2.604h-2.736l0.295-0.868
					h2.082l-1.545-3.749L160.64,111.737z"/>
				<path style="fill:#181C21;" d="M173.602,103.463v0.868h-2.604v7.406h-1.07v-7.406h-2.604v-0.868H173.602z"/>
				<path style="fill:#181C21;" d="M180.285,103.463v0.868h-4.34v2.777h4.137v0.868h-4.137v2.893h4.426v0.868h-5.496v-8.274H180.285
					z"/>
			</g>
		</g>
		<g>
			<g>
				<path style="fill:#181C21;" d="M103.521,115.327l0.629,1.229l0.639-1.229h0.535l-0.926,1.66v0.891h-0.492v-0.898l-0.924-1.653
					H103.521z"/>
				<path style="fill:#181C21;" d="M107.934,117.896c-0.18,0-0.344-0.037-0.492-0.11c-0.148-0.073-0.276-0.17-0.383-0.291
					c-0.107-0.121-0.189-0.259-0.246-0.414c-0.058-0.156-0.086-0.315-0.086-0.478c0-0.17,0.029-0.333,0.091-0.489
					c0.062-0.156,0.146-0.294,0.255-0.413c0.109-0.12,0.238-0.215,0.387-0.286c0.148-0.071,0.311-0.106,0.484-0.106
					c0.18,0,0.344,0.038,0.492,0.113c0.148,0.075,0.275,0.174,0.381,0.296c0.105,0.122,0.188,0.261,0.244,0.417
					c0.059,0.156,0.087,0.314,0.087,0.475c0,0.17-0.03,0.332-0.092,0.487c-0.062,0.154-0.146,0.291-0.253,0.409
					c-0.107,0.119-0.236,0.213-0.385,0.284C108.27,117.86,108.107,117.896,107.934,117.896z M107.226,116.602
					c0,0.11,0.017,0.217,0.048,0.32c0.033,0.103,0.08,0.194,0.141,0.273c0.061,0.079,0.136,0.143,0.225,0.19
					c0.088,0.048,0.189,0.072,0.302,0.072c0.114,0,0.216-0.024,0.304-0.074c0.088-0.049,0.16-0.114,0.221-0.196
					c0.061-0.081,0.105-0.173,0.137-0.275c0.031-0.102,0.047-0.205,0.047-0.311c0-0.11-0.018-0.217-0.051-0.32
					c-0.033-0.103-0.08-0.194-0.142-0.273s-0.136-0.142-0.224-0.188c-0.087-0.047-0.186-0.07-0.296-0.07
					c-0.114,0-0.216,0.024-0.304,0.074c-0.087,0.049-0.161,0.114-0.223,0.194c-0.061,0.08-0.107,0.171-0.139,0.273
					C107.24,116.394,107.226,116.497,107.226,116.602z"/>
				<path style="fill:#181C21;" d="M112.043,117.457c0.117,0,0.217-0.024,0.297-0.072c0.08-0.048,0.145-0.11,0.193-0.187
					c0.049-0.077,0.084-0.165,0.104-0.264c0.021-0.1,0.03-0.202,0.03-0.308v-1.3h0.492v1.3c0,0.175-0.021,0.339-0.063,0.492
					c-0.042,0.153-0.107,0.288-0.197,0.403c-0.09,0.115-0.205,0.205-0.348,0.273c-0.141,0.067-0.31,0.101-0.506,0.101
					c-0.203,0-0.377-0.036-0.52-0.106c-0.143-0.071-0.258-0.164-0.346-0.28c-0.09-0.116-0.153-0.251-0.193-0.404
					c-0.039-0.153-0.059-0.313-0.059-0.478v-1.3h0.496v1.3c0,0.108,0.01,0.211,0.029,0.311c0.021,0.099,0.056,0.188,0.105,0.264
					c0.049,0.077,0.113,0.138,0.191,0.185C111.831,117.434,111.928,117.457,112.043,117.457z"/>
				<path style="fill:#181C21;" d="M115.094,117.878v-2.551h1.129c0.117,0,0.225,0.024,0.324,0.074
					c0.1,0.049,0.186,0.114,0.258,0.194c0.071,0.08,0.127,0.171,0.168,0.273c0.041,0.102,0.062,0.204,0.062,0.307
					c0,0.165-0.042,0.316-0.124,0.451c-0.082,0.135-0.195,0.233-0.336,0.292l0.6,0.959h-0.561l-0.535-0.855h-0.488v0.855H115.094z
					 M115.59,116.588h0.621c0.046,0,0.088-0.011,0.128-0.032c0.04-0.021,0.073-0.051,0.103-0.088
					c0.029-0.037,0.051-0.081,0.068-0.131c0.017-0.05,0.025-0.104,0.025-0.162c0-0.06-0.01-0.115-0.029-0.165
					s-0.045-0.094-0.077-0.131c-0.032-0.037-0.069-0.066-0.111-0.086c-0.042-0.021-0.085-0.031-0.128-0.031h-0.6V116.588z"/>
				<path style="fill:#181C21;" d="M123.056,115.762h-0.812v2.116h-0.496v-2.116h-0.816v-0.435h2.124V115.762z"/>
				<path style="fill:#181C21;" d="M124.316,117.878l1.006-2.551h0.402l1.003,2.551h-0.524l-0.234-0.636h-0.895l-0.233,0.636
					H124.316z M125.523,115.862l-0.366,1.031h0.722L125.523,115.862z"/>
				<path style="fill:#181C21;" d="M130.148,117.59c-0.197,0.204-0.424,0.306-0.68,0.306c-0.162,0-0.316-0.036-0.46-0.108
					c-0.144-0.072-0.269-0.169-0.376-0.289c-0.105-0.121-0.189-0.261-0.251-0.418c-0.061-0.158-0.091-0.322-0.091-0.493
					c0-0.175,0.029-0.339,0.091-0.494c0.062-0.155,0.146-0.29,0.255-0.406c0.109-0.116,0.237-0.208,0.385-0.276
					c0.148-0.068,0.307-0.103,0.48-0.103c0.232,0,0.431,0.05,0.597,0.151c0.165,0.101,0.289,0.236,0.373,0.406l-0.369,0.273
					c-0.063-0.127-0.148-0.224-0.258-0.291c-0.108-0.067-0.229-0.101-0.36-0.101c-0.105,0-0.2,0.022-0.286,0.068
					c-0.084,0.045-0.157,0.108-0.217,0.187c-0.061,0.079-0.107,0.17-0.141,0.273c-0.033,0.103-0.05,0.212-0.05,0.327
					c0,0.12,0.018,0.232,0.054,0.336c0.036,0.104,0.086,0.194,0.15,0.271c0.064,0.077,0.141,0.137,0.229,0.182
					c0.088,0.045,0.184,0.066,0.289,0.066c0.234,0,0.447-0.116,0.637-0.349v-0.18h-0.514v-0.363h0.923v1.312h-0.409V117.59z"/>
				<path style="fill:#181C21;" d="M132.422,117.878v-2.551h0.496v2.116h1.301v0.435H132.422z"/>
				<path style="fill:#181C21;" d="M135.976,117.878v-2.547h0.496v2.547H135.976z"/>
				<path style="fill:#181C21;" d="M138.936,116.243v1.635h-0.496v-2.551h0.385l1.33,1.674v-1.671h0.496v2.547h-0.402
					L138.936,116.243z"/>
				<path style="fill:#181C21;" d="M144.39,117.443v0.435h-1.771v-2.551h1.739v0.435h-1.243v0.614h1.074v0.402h-1.074v0.665H144.39z
					"/>
				<path style="fill:#181C21;" d="M150.045,115.995c-0.018-0.017-0.048-0.039-0.092-0.068c-0.045-0.029-0.099-0.057-0.162-0.085
					c-0.063-0.028-0.133-0.051-0.207-0.07c-0.074-0.019-0.148-0.029-0.226-0.029c-0.137,0-0.238,0.025-0.306,0.076
					c-0.066,0.05-0.101,0.121-0.101,0.212c0,0.053,0.013,0.097,0.038,0.131c0.025,0.035,0.062,0.065,0.109,0.091
					c0.048,0.026,0.108,0.05,0.182,0.072c0.072,0.022,0.157,0.044,0.253,0.068c0.124,0.034,0.237,0.069,0.34,0.108
					c0.102,0.038,0.188,0.086,0.259,0.144c0.07,0.058,0.125,0.126,0.163,0.207c0.038,0.08,0.058,0.179,0.058,0.296
					c0,0.137-0.025,0.254-0.077,0.351c-0.052,0.097-0.12,0.175-0.206,0.235c-0.087,0.06-0.188,0.104-0.303,0.131
					c-0.115,0.028-0.234,0.042-0.359,0.042c-0.191,0-0.381-0.029-0.567-0.086c-0.187-0.057-0.354-0.139-0.503-0.244l0.219-0.428
					c0.021,0.021,0.061,0.05,0.117,0.084c0.057,0.035,0.123,0.07,0.199,0.104c0.077,0.035,0.162,0.064,0.256,0.088
					c0.093,0.024,0.188,0.036,0.287,0.036c0.273,0,0.409-0.087,0.409-0.262c0-0.057-0.016-0.105-0.046-0.144
					c-0.031-0.038-0.076-0.072-0.133-0.101c-0.059-0.029-0.128-0.055-0.209-0.079c-0.082-0.024-0.172-0.049-0.273-0.075
					c-0.122-0.034-0.229-0.07-0.318-0.11c-0.09-0.04-0.164-0.085-0.224-0.138c-0.06-0.053-0.105-0.115-0.135-0.187
					c-0.03-0.072-0.045-0.157-0.045-0.255c0-0.129,0.024-0.244,0.071-0.345c0.049-0.101,0.115-0.184,0.199-0.252
					c0.086-0.067,0.185-0.118,0.297-0.152c0.113-0.035,0.233-0.052,0.363-0.052c0.18,0,0.345,0.028,0.496,0.085
					c0.15,0.056,0.281,0.122,0.395,0.199L150.045,115.995z"/>
				<path style="fill:#181C21;" d="M152.168,117.878v-2.551h1.082c0.117,0,0.226,0.024,0.324,0.074
					c0.1,0.049,0.186,0.114,0.258,0.194c0.071,0.08,0.128,0.171,0.168,0.273c0.041,0.102,0.062,0.204,0.062,0.307
					c0,0.108-0.019,0.213-0.058,0.314c-0.038,0.102-0.092,0.192-0.162,0.271c-0.068,0.079-0.152,0.143-0.251,0.19
					c-0.099,0.048-0.206,0.072-0.323,0.072h-0.604v0.855H152.168z M152.664,116.588h0.574c0.092,0,0.168-0.037,0.229-0.111
					c0.061-0.074,0.092-0.175,0.092-0.302c0-0.064-0.01-0.122-0.029-0.174c-0.018-0.051-0.044-0.095-0.074-0.131
					c-0.031-0.036-0.068-0.063-0.11-0.081c-0.042-0.018-0.085-0.027-0.128-0.027h-0.553V116.588z"/>
				<path style="fill:#181C21;" d="M155.395,117.878l1.006-2.551h0.402l1.002,2.551h-0.524l-0.233-0.636h-0.895l-0.234,0.636
					H155.395z M156.602,115.862l-0.367,1.031h0.723L156.602,115.862z"/>
				<path style="fill:#181C21;" d="M159.363,116.584c0-0.156,0.028-0.31,0.084-0.461c0.055-0.152,0.135-0.288,0.238-0.408
					c0.104-0.12,0.232-0.217,0.383-0.291c0.15-0.074,0.323-0.112,0.518-0.112c0.227,0,0.424,0.052,0.591,0.155
					c0.166,0.103,0.289,0.237,0.368,0.402l-0.381,0.262c-0.029-0.072-0.066-0.132-0.111-0.182c-0.046-0.049-0.096-0.088-0.149-0.117
					c-0.054-0.029-0.109-0.049-0.167-0.063s-0.112-0.02-0.165-0.02c-0.118,0-0.221,0.025-0.31,0.076
					c-0.088,0.05-0.162,0.115-0.221,0.196c-0.059,0.08-0.104,0.171-0.133,0.273c-0.029,0.102-0.045,0.203-0.045,0.304
					c0,0.112,0.018,0.221,0.053,0.325c0.034,0.104,0.084,0.196,0.146,0.275c0.064,0.079,0.14,0.143,0.229,0.19
					c0.088,0.048,0.185,0.072,0.291,0.072c0.055,0,0.111-0.007,0.169-0.021c0.058-0.014,0.112-0.037,0.167-0.068
					c0.054-0.031,0.104-0.071,0.148-0.121c0.046-0.049,0.083-0.108,0.111-0.178l0.406,0.233c-0.038,0.096-0.094,0.18-0.166,0.253
					c-0.074,0.073-0.157,0.135-0.25,0.185c-0.094,0.05-0.191,0.088-0.295,0.115c-0.103,0.026-0.205,0.039-0.306,0.039
					c-0.177,0-0.339-0.038-0.487-0.115c-0.146-0.077-0.273-0.177-0.381-0.3c-0.105-0.123-0.188-0.263-0.247-0.42
					C159.393,116.907,159.363,116.748,159.363,116.584z"/>
				<path style="fill:#181C21;" d="M165.131,117.443v0.435h-1.771v-2.551h1.738v0.435h-1.242v0.614h1.074v0.402h-1.074v0.665
					H165.131z"/>
				<path style="fill:#181C21;" d="M171.406,115.327v2.551h-0.492v-1.088h-1.156v1.088h-0.496v-2.551h0.496v1.031h1.156v-1.031
					H171.406z"/>
				<path style="fill:#181C21;" d="M175.148,117.443v0.435h-1.771v-2.551h1.739v0.435h-1.243v0.614h1.074v0.402h-1.074v0.665
					H175.148z"/>
				<path style="fill:#181C21;" d="M176.982,117.878v-2.551h1.129c0.117,0,0.226,0.024,0.325,0.074
					c0.099,0.049,0.184,0.114,0.257,0.194c0.072,0.08,0.128,0.171,0.169,0.273c0.04,0.102,0.062,0.204,0.062,0.307
					c0,0.165-0.042,0.316-0.125,0.451c-0.082,0.135-0.194,0.233-0.336,0.292l0.601,0.959h-0.561l-0.535-0.855h-0.489v0.855H176.982z
					 M177.479,116.588h0.622c0.046,0,0.088-0.011,0.128-0.032c0.039-0.021,0.073-0.051,0.101-0.088
					c0.029-0.037,0.052-0.081,0.068-0.131c0.018-0.05,0.025-0.104,0.025-0.162c0-0.06-0.01-0.115-0.029-0.165
					c-0.019-0.05-0.045-0.094-0.076-0.131c-0.033-0.037-0.07-0.066-0.111-0.086c-0.043-0.021-0.085-0.031-0.128-0.031h-0.6V116.588z
					"/>
				<path style="fill:#181C21;" d="M182.613,117.443v0.435h-1.771v-2.551h1.738v0.435h-1.242v0.614h1.074v0.402h-1.074v0.665
					H182.613z"/>
			</g>
		</g>
		<path style="fill:#181C21;" d="M193.24,93.509c-0.669-0.379-1.657-0.938-2.965-1.546c-1.305-0.615-2.922-1.298-4.819-1.978
			c-1.457-0.522-3.083-1.036-4.851-1.516V69.232c-6.521-5.822-10.748-9.595-13.619-12.158h-0.125v29.047
			c-1.555-0.124-3.146-0.207-4.77-0.239c-0.402-0.012-0.811-0.007-1.217-0.011V58.839c-9.856-8.799-16.246-14.504-20.585-18.377
			h-0.189v47.757c-0.782,0.181-1.561,0.368-2.334,0.572l-1.204,0.305l-1.136,0.297c-0.389,0.103-0.776,0.207-1.164,0.311
			c-0.066,0.017-0.127,0.031-0.192,0.046V50.407c-14.335-12.798-23.628-21.095-29.938-26.728h-0.274v66.845
			c-0.563-0.163-1.11-0.331-1.629-0.51c-1.822-0.61-3.367-1.3-4.62-1.928c-1.25-0.633-2.22-1.191-2.862-1.599
			c-0.648-0.403-0.992-0.63-0.992-0.63s0.065,0.079,0.193,0.23c0.128,0.152,0.316,0.382,0.58,0.662
			c0.526,0.562,1.307,1.394,2.424,2.328c1.11,0.94,2.549,2,4.332,3.017c0.886,0.52,1.869,1.001,2.92,1.482
			c1.057,0.475,2.198,0.899,3.404,1.309c2.421,0.78,5.13,1.395,8.028,1.729c2.897,0.326,5.98,0.426,9.141,0.231
			c1.58-0.09,3.181-0.251,4.788-0.472c0.403-0.056,0.807-0.111,1.21-0.166c0.403-0.062,0.806-0.129,1.21-0.2
			c0.402-0.072,0.808-0.144,1.214-0.216c0.408-0.084,0.817-0.167,1.228-0.252c0.408-0.085,0.83-0.167,1.227-0.256
			c0.391-0.091,0.781-0.181,1.173-0.272c0.402-0.096,0.806-0.19,1.207-0.287l1.146-0.276c0.767-0.178,1.527-0.386,2.3-0.54
			l2.315-0.493c1.547-0.302,3.094-0.62,4.648-0.854c0.775-0.125,1.547-0.263,2.321-0.366c0.775-0.105,1.544-0.238,2.314-0.321
			c0.771-0.091,1.539-0.181,2.304-0.271c0.766-0.076,1.526-0.152,2.284-0.227c1.518-0.122,3.019-0.235,4.497-0.31
			c2.958-0.146,5.826-0.188,8.551-0.125c2.725,0.06,5.305,0.213,7.686,0.431c4.765,0.43,8.732,1.113,11.501,1.697
			c1.383,0.297,2.475,0.545,3.211,0.747c0.737,0.195,1.131,0.313,1.131,0.313S193.908,93.895,193.24,93.509z"/>
	</g>
	<g>
		<g>
			<g>
				<path style="fill:#BAA360;" d="M107.047,255.487v-8.274h3.529c1.574,0,2.361,0.662,2.361,1.985c0,1.076-0.77,1.873-2.309,2.39
					l2.84,3.9h-1.411l-2.633-3.721v-0.7c1.581-0.251,2.372-0.858,2.372-1.822c0-0.764-0.439-1.146-1.318-1.146h-2.361v7.389H107.047
					z"/>
				<path style="fill:#BAA360;" d="M120.008,247.213v0.868h-4.34v2.777h4.138v0.868h-4.138v2.893h4.427v0.868h-5.497v-8.274H120.008
					z"/>
				<path style="fill:#BAA360;" d="M121.987,255.487h-1.111l3.513-8.274h1.186l3.529,8.274h-1.186l-1.07-2.604h-2.736l0.295-0.868
					h2.082l-1.545-3.75L121.987,255.487z"/>
				<path style="fill:#BAA360;" d="M131.303,247.213v7.406h4.328v0.868h-5.398v-8.274H131.303z"/>
				<path style="fill:#BAA360;" d="M145.207,247.213v0.868h-4.34v2.777h4.138v0.868h-4.138v2.893h4.427v0.868h-5.497v-8.274H145.207
					z"/>
				<path style="fill:#BAA360;" d="M146.799,255.198v-0.983c0.867,0.309,1.805,0.463,2.813,0.463c1.423,0,2.135-0.521,2.135-1.563
					c0-0.887-0.525-1.331-1.574-1.331h-1.064c-1.732,0-2.598-0.753-2.598-2.257c0-1.582,1.108-2.372,3.326-2.372
					c0.965,0,1.861,0.116,2.691,0.347v0.983c-0.83-0.309-1.727-0.463-2.691-0.463c-1.504,0-2.256,0.501-2.256,1.504
					c0,0.887,0.509,1.331,1.527,1.331h1.064c1.763,0,2.645,0.752,2.645,2.256c0,1.62-1.068,2.431-3.205,2.431
					C148.604,255.545,147.666,255.429,146.799,255.198z"/>
				<path style="fill:#BAA360;" d="M159.963,247.213v0.868h-2.605v7.406h-1.07v-7.406h-2.604v-0.868H159.963z"/>
				<path style="fill:#BAA360;" d="M160.64,255.487h-1.111l3.513-8.274h1.185l3.529,8.274h-1.186l-1.07-2.604h-2.736l0.295-0.868
					h2.082l-1.545-3.75L160.64,255.487z"/>
				<path style="fill:#BAA360;" d="M173.602,247.213v0.868h-2.604v7.406h-1.07v-7.406h-2.604v-0.868H173.602z"/>
				<path style="fill:#BAA360;" d="M180.285,247.213v0.868h-4.34v2.777h4.137v0.868h-4.137v2.893h4.426v0.868h-5.496v-8.274H180.285
					z"/>
			</g>
		</g>
		<g>
			<g>
				<path style="fill:#BAA360;" d="M103.521,259.077l0.629,1.229l0.639-1.229h0.535l-0.926,1.66v0.891h-0.492v-0.898l-0.924-1.653
					H103.521z"/>
				<path style="fill:#BAA360;" d="M107.934,261.646c-0.18,0-0.344-0.037-0.492-0.11c-0.148-0.073-0.276-0.17-0.383-0.291
					c-0.107-0.121-0.189-0.259-0.246-0.414c-0.058-0.156-0.086-0.315-0.086-0.478c0-0.17,0.029-0.333,0.091-0.489
					c0.062-0.156,0.146-0.294,0.255-0.413c0.109-0.12,0.238-0.215,0.387-0.286c0.148-0.071,0.311-0.106,0.484-0.106
					c0.18,0,0.344,0.038,0.492,0.113c0.148,0.075,0.275,0.174,0.381,0.296c0.105,0.122,0.188,0.261,0.244,0.417
					c0.059,0.156,0.087,0.314,0.087,0.475c0,0.17-0.03,0.332-0.092,0.487c-0.062,0.154-0.146,0.291-0.253,0.409
					c-0.107,0.119-0.236,0.213-0.385,0.284C108.27,261.61,108.107,261.646,107.934,261.646z M107.226,260.353
					c0,0.11,0.017,0.217,0.048,0.32c0.033,0.103,0.08,0.194,0.141,0.273c0.061,0.079,0.136,0.143,0.225,0.191
					c0.088,0.048,0.189,0.072,0.302,0.072c0.114,0,0.216-0.024,0.304-0.074c0.088-0.049,0.16-0.114,0.221-0.196
					c0.061-0.081,0.105-0.173,0.137-0.275c0.031-0.102,0.047-0.205,0.047-0.31c0-0.11-0.018-0.217-0.051-0.32
					c-0.033-0.103-0.08-0.194-0.142-0.273s-0.136-0.142-0.224-0.189c-0.087-0.047-0.186-0.07-0.296-0.07
					c-0.114,0-0.216,0.024-0.304,0.074c-0.087,0.049-0.161,0.114-0.223,0.194c-0.061,0.081-0.107,0.171-0.139,0.273
					C107.24,260.144,107.226,260.247,107.226,260.353z"/>
				<path style="fill:#BAA360;" d="M112.043,261.207c0.117,0,0.217-0.024,0.297-0.072c0.08-0.048,0.145-0.11,0.193-0.187
					c0.049-0.077,0.084-0.165,0.104-0.264c0.021-0.1,0.03-0.202,0.03-0.308v-1.3h0.492v1.3c0,0.175-0.021,0.339-0.063,0.492
					c-0.042,0.153-0.107,0.288-0.197,0.403c-0.09,0.115-0.205,0.206-0.348,0.273c-0.141,0.067-0.31,0.101-0.506,0.101
					c-0.203,0-0.377-0.036-0.52-0.106c-0.143-0.071-0.258-0.164-0.346-0.28c-0.09-0.116-0.153-0.251-0.193-0.404
					c-0.039-0.153-0.059-0.313-0.059-0.478v-1.3h0.496v1.3c0,0.108,0.01,0.211,0.029,0.311c0.021,0.099,0.056,0.188,0.105,0.264
					c0.049,0.077,0.113,0.138,0.191,0.185C111.831,261.184,111.928,261.207,112.043,261.207z"/>
				<path style="fill:#BAA360;" d="M115.094,261.628v-2.551h1.129c0.117,0,0.225,0.024,0.324,0.074
					c0.1,0.049,0.186,0.114,0.258,0.194c0.071,0.08,0.127,0.171,0.168,0.273c0.041,0.102,0.062,0.204,0.062,0.307
					c0,0.165-0.042,0.316-0.124,0.451c-0.082,0.135-0.195,0.233-0.336,0.293l0.6,0.959h-0.561l-0.535-0.855h-0.488v0.855H115.094z
					 M115.59,260.338h0.621c0.046,0,0.088-0.011,0.128-0.032c0.04-0.022,0.073-0.051,0.103-0.088
					c0.029-0.037,0.051-0.081,0.068-0.131c0.017-0.05,0.025-0.104,0.025-0.162c0-0.06-0.01-0.115-0.029-0.165
					s-0.045-0.094-0.077-0.131c-0.032-0.037-0.069-0.066-0.111-0.086c-0.042-0.02-0.085-0.031-0.128-0.031h-0.6V260.338z"/>
				<path style="fill:#BAA360;" d="M123.056,259.512h-0.812v2.116h-0.496v-2.116h-0.816v-0.435h2.124V259.512z"/>
				<path style="fill:#BAA360;" d="M124.316,261.628l1.006-2.551h0.402l1.003,2.551h-0.524l-0.234-0.636h-0.895l-0.233,0.636
					H124.316z M125.523,259.612l-0.366,1.031h0.722L125.523,259.612z"/>
				<path style="fill:#BAA360;" d="M130.148,261.34c-0.197,0.204-0.424,0.306-0.68,0.306c-0.162,0-0.316-0.036-0.46-0.108
					c-0.144-0.072-0.269-0.168-0.376-0.289c-0.105-0.121-0.189-0.261-0.251-0.418c-0.061-0.158-0.091-0.322-0.091-0.493
					c0-0.175,0.029-0.339,0.091-0.494c0.062-0.155,0.146-0.29,0.255-0.406c0.109-0.116,0.237-0.208,0.385-0.276
					c0.148-0.068,0.307-0.103,0.48-0.103c0.232,0,0.431,0.05,0.597,0.151c0.165,0.101,0.289,0.236,0.373,0.406l-0.369,0.273
					c-0.063-0.127-0.148-0.224-0.258-0.291c-0.108-0.067-0.229-0.101-0.36-0.101c-0.105,0-0.2,0.022-0.286,0.068
					c-0.084,0.045-0.157,0.108-0.217,0.187c-0.061,0.079-0.107,0.17-0.141,0.273c-0.033,0.103-0.05,0.212-0.05,0.327
					c0,0.12,0.018,0.232,0.054,0.336c0.036,0.104,0.086,0.194,0.15,0.271c0.064,0.077,0.141,0.137,0.229,0.182
					c0.088,0.044,0.184,0.066,0.289,0.066c0.234,0,0.447-0.116,0.637-0.349v-0.18h-0.514v-0.363h0.923v1.312h-0.409V261.34z"/>
				<path style="fill:#BAA360;" d="M132.422,261.628v-2.551h0.496v2.116h1.301v0.435H132.422z"/>
				<path style="fill:#BAA360;" d="M135.976,261.628v-2.547h0.496v2.547H135.976z"/>
				<path style="fill:#BAA360;" d="M138.936,259.993v1.635h-0.496v-2.551h0.385l1.33,1.674v-1.671h0.496v2.547h-0.402
					L138.936,259.993z"/>
				<path style="fill:#BAA360;" d="M144.39,261.193v0.435h-1.771v-2.551h1.739v0.435h-1.243v0.614h1.074v0.402h-1.074v0.665H144.39z
					"/>
				<path style="fill:#BAA360;" d="M150.045,259.745c-0.018-0.017-0.048-0.039-0.092-0.068c-0.045-0.029-0.099-0.057-0.162-0.084
					c-0.063-0.028-0.133-0.051-0.207-0.07c-0.074-0.019-0.148-0.029-0.226-0.029c-0.137,0-0.238,0.025-0.306,0.076
					c-0.066,0.05-0.101,0.121-0.101,0.212c0,0.053,0.013,0.097,0.038,0.131c0.025,0.035,0.062,0.065,0.109,0.091
					c0.048,0.026,0.108,0.05,0.182,0.072c0.072,0.022,0.157,0.044,0.253,0.068c0.124,0.034,0.237,0.069,0.34,0.108
					c0.102,0.038,0.188,0.086,0.259,0.143c0.07,0.058,0.125,0.127,0.163,0.207c0.038,0.081,0.058,0.179,0.058,0.296
					c0,0.137-0.025,0.254-0.077,0.351c-0.052,0.097-0.12,0.175-0.206,0.235c-0.087,0.06-0.188,0.104-0.303,0.131
					c-0.115,0.028-0.234,0.041-0.359,0.041c-0.191,0-0.381-0.029-0.567-0.086c-0.187-0.057-0.354-0.139-0.503-0.244l0.219-0.428
					c0.021,0.022,0.061,0.05,0.117,0.085c0.057,0.035,0.123,0.07,0.199,0.105c0.077,0.035,0.162,0.064,0.256,0.088
					c0.093,0.024,0.188,0.036,0.287,0.036c0.273,0,0.409-0.087,0.409-0.262c0-0.057-0.016-0.105-0.046-0.144
					c-0.031-0.038-0.076-0.072-0.133-0.101c-0.059-0.029-0.128-0.055-0.209-0.079c-0.082-0.024-0.172-0.049-0.273-0.075
					c-0.122-0.034-0.229-0.07-0.318-0.11c-0.09-0.04-0.164-0.085-0.224-0.138c-0.06-0.053-0.105-0.115-0.135-0.187
					c-0.03-0.072-0.045-0.157-0.045-0.255c0-0.129,0.024-0.244,0.071-0.345c0.049-0.101,0.115-0.185,0.199-0.252
					c0.086-0.067,0.185-0.118,0.297-0.152c0.113-0.035,0.233-0.052,0.363-0.052c0.18,0,0.345,0.028,0.496,0.085
					c0.15,0.056,0.281,0.122,0.395,0.199L150.045,259.745z"/>
				<path style="fill:#BAA360;" d="M152.168,261.628v-2.551h1.082c0.117,0,0.226,0.024,0.324,0.074
					c0.1,0.049,0.186,0.114,0.258,0.194c0.071,0.08,0.128,0.171,0.168,0.273c0.041,0.102,0.062,0.204,0.062,0.307
					c0,0.108-0.019,0.213-0.058,0.314c-0.038,0.102-0.092,0.192-0.162,0.272c-0.068,0.079-0.152,0.142-0.251,0.19
					c-0.099,0.048-0.206,0.072-0.323,0.072h-0.604v0.855H152.168z M152.664,260.338h0.574c0.092,0,0.168-0.037,0.229-0.111
					c0.061-0.074,0.092-0.175,0.092-0.302c0-0.064-0.01-0.123-0.029-0.174c-0.018-0.051-0.044-0.095-0.074-0.131
					c-0.031-0.036-0.068-0.063-0.11-0.081c-0.042-0.018-0.085-0.027-0.128-0.027h-0.553V260.338z"/>
				<path style="fill:#BAA360;" d="M155.395,261.628l1.006-2.551h0.402l1.002,2.551h-0.524l-0.233-0.636h-0.895l-0.234,0.636
					H155.395z M156.602,259.612l-0.367,1.031h0.723L156.602,259.612z"/>
				<path style="fill:#BAA360;" d="M159.363,260.335c0-0.156,0.028-0.31,0.084-0.461c0.055-0.152,0.135-0.288,0.238-0.408
					c0.104-0.12,0.232-0.217,0.383-0.291c0.15-0.074,0.323-0.112,0.518-0.112c0.227,0,0.424,0.052,0.591,0.155
					c0.166,0.103,0.289,0.237,0.368,0.402l-0.381,0.262c-0.029-0.072-0.066-0.132-0.111-0.182c-0.046-0.049-0.096-0.088-0.149-0.117
					c-0.054-0.029-0.109-0.049-0.167-0.063c-0.058-0.013-0.112-0.02-0.165-0.02c-0.118,0-0.221,0.025-0.31,0.076
					c-0.088,0.05-0.162,0.115-0.221,0.196c-0.059,0.08-0.104,0.171-0.133,0.273c-0.029,0.102-0.045,0.203-0.045,0.304
					c0,0.112,0.018,0.221,0.053,0.325c0.034,0.104,0.084,0.196,0.146,0.275c0.064,0.079,0.14,0.143,0.229,0.19
					c0.088,0.048,0.185,0.072,0.291,0.072c0.055,0,0.111-0.007,0.169-0.021c0.058-0.014,0.112-0.037,0.167-0.068
					c0.054-0.031,0.104-0.071,0.148-0.121c0.046-0.049,0.083-0.108,0.111-0.178l0.406,0.233c-0.038,0.096-0.094,0.18-0.166,0.253
					c-0.074,0.073-0.157,0.135-0.25,0.185c-0.094,0.05-0.191,0.088-0.295,0.115c-0.103,0.026-0.205,0.039-0.306,0.039
					c-0.177,0-0.339-0.038-0.487-0.115c-0.146-0.077-0.273-0.177-0.381-0.3c-0.105-0.123-0.188-0.263-0.247-0.42
					C159.393,260.657,159.363,260.498,159.363,260.335z"/>
				<path style="fill:#BAA360;" d="M165.131,261.193v0.435h-1.771v-2.551h1.738v0.435h-1.242v0.614h1.074v0.402h-1.074v0.665
					H165.131z"/>
				<path style="fill:#BAA360;" d="M171.406,259.077v2.551h-0.492v-1.088h-1.156v1.088h-0.496v-2.551h0.496v1.031h1.156v-1.031
					H171.406z"/>
				<path style="fill:#BAA360;" d="M175.148,261.193v0.435h-1.771v-2.551h1.739v0.435h-1.243v0.614h1.074v0.402h-1.074v0.665
					H175.148z"/>
				<path style="fill:#BAA360;" d="M176.982,261.628v-2.551h1.129c0.117,0,0.226,0.024,0.325,0.074
					c0.099,0.049,0.184,0.114,0.257,0.194c0.072,0.08,0.128,0.171,0.169,0.273c0.04,0.102,0.062,0.204,0.062,0.307
					c0,0.165-0.042,0.316-0.125,0.451c-0.082,0.135-0.194,0.233-0.336,0.293l0.601,0.959h-0.561l-0.535-0.855h-0.489v0.855H176.982z
					 M177.479,260.338h0.622c0.046,0,0.088-0.011,0.128-0.032c0.039-0.022,0.073-0.051,0.101-0.088
					c0.029-0.037,0.052-0.081,0.068-0.131c0.018-0.05,0.025-0.104,0.025-0.162c0-0.06-0.01-0.115-0.029-0.165
					c-0.019-0.05-0.045-0.094-0.076-0.131c-0.033-0.037-0.07-0.066-0.111-0.086c-0.043-0.02-0.085-0.031-0.128-0.031h-0.6V260.338z"
					/>
				<path style="fill:#BAA360;" d="M182.613,261.193v0.435h-1.771v-2.551h1.738v0.435h-1.242v0.614h1.074v0.402h-1.074v0.665
					H182.613z"/>
			</g>
		</g>
		<path style="fill:#BAA360;" d="M193.24,237.259c-0.669-0.379-1.657-0.939-2.965-1.546c-1.305-0.615-2.922-1.298-4.819-1.978
			c-1.457-0.521-3.083-1.036-4.851-1.516v-19.237c-6.521-5.822-10.748-9.595-13.619-12.158h-0.125v29.047
			c-1.555-0.124-3.146-0.207-4.77-0.239c-0.402-0.012-0.811-0.007-1.217-0.011v-27.032c-9.856-8.799-16.246-14.504-20.585-18.377
			h-0.189v47.757c-0.782,0.181-1.561,0.368-2.334,0.572l-1.204,0.305l-1.136,0.297c-0.389,0.103-0.776,0.207-1.164,0.31
			c-0.066,0.017-0.127,0.031-0.192,0.046v-39.343c-14.335-12.798-23.628-21.095-29.938-26.728h-0.274v66.845
			c-0.563-0.163-1.11-0.332-1.629-0.51c-1.822-0.61-3.367-1.3-4.62-1.928c-1.25-0.633-2.22-1.191-2.862-1.599
			c-0.648-0.403-0.992-0.63-0.992-0.63s0.065,0.079,0.193,0.23c0.128,0.152,0.316,0.382,0.58,0.662
			c0.526,0.562,1.307,1.394,2.424,2.328c1.11,0.94,2.549,1.999,4.332,3.017c0.886,0.52,1.869,1.001,2.92,1.482
			c1.057,0.475,2.198,0.899,3.404,1.309c2.421,0.78,5.13,1.395,8.028,1.729c2.897,0.326,5.98,0.426,9.141,0.231
			c1.58-0.09,3.181-0.251,4.788-0.472c0.403-0.056,0.807-0.111,1.21-0.166c0.403-0.062,0.806-0.129,1.21-0.2
			c0.402-0.072,0.808-0.144,1.214-0.216c0.408-0.083,0.817-0.167,1.228-0.251c0.408-0.085,0.83-0.167,1.227-0.256
			c0.391-0.091,0.781-0.181,1.173-0.272c0.402-0.096,0.806-0.19,1.207-0.287l1.146-0.276c0.767-0.178,1.527-0.386,2.3-0.54
			l2.315-0.493c1.547-0.302,3.094-0.62,4.648-0.854c0.775-0.125,1.547-0.263,2.321-0.366c0.775-0.105,1.544-0.238,2.314-0.321
			c0.771-0.091,1.539-0.181,2.304-0.271c0.766-0.076,1.526-0.152,2.284-0.227c1.518-0.122,3.019-0.235,4.497-0.31
			c2.958-0.145,5.826-0.188,8.551-0.124c2.725,0.06,5.305,0.213,7.686,0.431c4.765,0.43,8.732,1.113,11.501,1.697
			c1.383,0.297,2.475,0.545,3.211,0.747c0.737,0.195,1.131,0.313,1.131,0.313S193.908,237.645,193.24,237.259z"/>
	</g>
</g>
</svg>
