<svg width="18.000000" height="18.000000" viewBox="0 0 18 18" fill="none" xmlns="http://www.w3.org/2000/svg" xmlns:xlink="http://www.w3.org/1999/xlink">
	<desc>
			Created with Pixso.
	</desc>
	<defs/>
	<path id="Vector" d="M17.8438 0.154419C17.707 0.017334 17.5078 -0.0334473 17.3203 0.0222168L1.1875 4.86206C0.476562 5.07532 0 5.71729 0 6.45972C0 7.19189 0.492188 7.84375 1.19531 8.04492L8.00781 9.99146L9.95703 16.8043C10.1562 17.5083 10.8086 18 11.5391 18C12.2812 18 12.9258 17.5223 13.1367 16.8114L17.9766 0.678833C18.0352 0.493042 17.9844 0.291626 17.8438 0.154419ZM1.05469 6.45947C1.05469 6.18665 1.23047 5.95068 1.49219 5.87219L15.6211 1.63354L8.28125 8.97253L1.48438 7.03076C1.23047 6.95825 1.05469 6.72351 1.05469 6.45947ZM12.1289 16.5084C12.0508 16.7698 11.8125 16.9453 11.5391 16.9453C11.2773 16.9453 11.043 16.7682 10.9688 16.5145L9.02734 9.71826L16.3672 2.37927L12.1289 16.5084Z" fill="#000000" fill-opacity="1.000000" fill-rule="nonzero"/>
</svg>
