<svg width="18.000000" height="18.000000" viewBox="0 0 18 18" fill="none" xmlns="http://www.w3.org/2000/svg" xmlns:xlink="http://www.w3.org/1999/xlink">
	<desc>
			Created with Pixso.
	</desc>
	<defs/>
	<path id="Vector" d="M12.9531 18C9.79688 18 6.42969 16.8405 3.79297 14.2059C1.16406 11.5756 0 8.20813 0 5.04614C0 2.25928 2.25391 0 5.04688 0C5.26172 0 5.45703 0.131226 5.53516 0.331543L7.79688 5.97998C7.90234 6.25037 7.77344 6.55725 7.5 6.66541L5.01953 7.6582C5.19531 10.5134 7.48828 12.8053 10.3438 12.9806L11.3359 10.4987C11.4414 10.2288 11.75 10.0967 12.0195 10.205L17.668 12.4644C17.8672 12.5444 18 12.7383 18 12.9539C18 15.7407 15.7461 18 12.9531 18ZM4.69531 1.06982C2.67578 1.24451 1.05469 2.93823 1.05469 5.04614C1.05469 8.22449 2.29297 11.2126 4.53906 13.4601C6.78906 15.7075 9.77734 16.9453 12.9531 16.9453C15.0625 16.9453 16.7539 15.3254 16.9297 13.3049L12.1172 11.38L11.1836 13.7146C11.1055 13.9148 10.9102 14.0461 10.6953 14.0461C6.97656 14.0461 3.95312 11.0225 3.95312 7.30603C3.95312 7.09045 4.08594 6.89587 4.28516 6.8158L6.62109 5.88196L4.69531 1.06982Z" fill="#FFFFFF" fill-opacity="1.000000" fill-rule="nonzero"/>
</svg>
