<svg width="14.000000" height="16.000000" viewBox="0 0 14 16" fill="none" xmlns="http://www.w3.org/2000/svg" xmlns:xlink="http://www.w3.org/1999/xlink">
	<desc>
			Created with Pixso.
	</desc>
	<defs>
		<clipPath id="clip1_530">
			<rect id="phone (4) 2" width="14.000000" height="16.000000" fill="white" fill-opacity="0"/>
		</clipPath>
	</defs>
	<rect id="phone (4) 2" width="14.000000" height="16.000000" fill="#FFFFFF" fill-opacity="0"/>
	<g clip-path="url(#clip1_530)">
		<path id="Vector" d="M10.7461 15.7534C8.12891 15.7534 5.33203 14.7388 3.14844 12.4331C0.964844 10.1309 0 7.18359 0 4.4165C0 1.97754 1.87109 0 4.1875 0C4.36719 0 4.52734 0.114746 4.59375 0.290039L6.46875 5.23389C6.55859 5.47021 6.44922 5.73877 6.22266 5.8335L4.16406 6.70264C4.30859 9.20117 6.21094 11.207 8.58203 11.3608L9.40234 9.18848C9.49219 8.95215 9.75 8.83643 9.97266 8.93115L14.6602 10.9087C14.8242 10.979 14.9336 11.1484 14.9336 11.3374C14.9336 13.7764 13.0625 15.7534 10.7461 15.7534ZM3.89453 0.936523C2.21875 1.08936 0.875 2.57129 0.875 4.4165C0.875 7.19824 1.90234 9.81348 3.76562 11.7803C5.63281 13.7471 8.10938 14.8306 10.7461 14.8306C12.4961 14.8306 13.9023 13.4131 14.0469 11.6445L10.0547 9.95996L9.28125 12.0029C9.21484 12.1782 9.05078 12.293 8.875 12.293C5.78906 12.293 3.28125 9.64697 3.28125 6.39404C3.28125 6.20557 3.39062 6.03516 3.55469 5.96533L5.49219 5.14795L3.89453 0.936523Z" fill="#000000" fill-opacity="1.000000" fill-rule="nonzero"/>
	</g>
</svg>
