<svg width="13.847656" height="13.846191" viewBox="0 0 13.8477 13.8462" fill="none" xmlns="http://www.w3.org/2000/svg" xmlns:xlink="http://www.w3.org/1999/xlink">
	<desc>
			Created with Pixso.
	</desc>
	<defs/>
	<path id="Vector" d="M9.96484 13.8462C7.53906 13.8462 4.94531 12.9541 2.91797 10.9277C0.894531 8.9043 0 6.31396 0 3.88184C0 1.73779 1.73438 0 3.88281 0C4.04688 0 4.19531 0.101074 4.25781 0.254883L5.99609 4.6001C6.07812 4.80811 5.97656 5.04395 5.76953 5.12744L3.85938 5.89111C3.99609 8.0874 5.75781 9.8501 7.95703 9.98486L8.71875 8.07617C8.80078 7.86816 9.03906 7.7666 9.24609 7.8501L13.5898 9.58789C13.7461 9.64941 13.8477 9.79883 13.8477 9.96436C13.8477 12.1084 12.1133 13.8462 9.96484 13.8462ZM3.61328 0.822754C2.05859 0.95752 0.8125 2.26025 0.8125 3.88184C0.8125 6.32666 1.76172 8.625 3.49219 10.354C5.22266 12.0825 7.51953 13.0347 9.96484 13.0347C11.5859 13.0347 12.8906 11.7886 13.0234 10.2344L9.32031 8.75391L8.60156 10.5498C8.54297 10.7036 8.39062 10.8047 8.22656 10.8047C5.36719 10.8047 3.04297 8.479 3.04297 5.62012C3.04297 5.4541 3.14062 5.30469 3.29688 5.24316L5.09375 4.52441L3.61328 0.822754Z" fill="#FFFFFF" fill-opacity="1.000000" fill-rule="nonzero"/>
</svg>
