<svg width="13.144531" height="17.045166" viewBox="0 0 13.1445 17.0452" fill="none" xmlns="http://www.w3.org/2000/svg" xmlns:xlink="http://www.w3.org/1999/xlink">
	<desc>
			Created with Pixso.
	</desc>
	<defs/>
	<path id="Vector" d="M11.2695 5.12183L9.5625 5.12183C9.21875 5.12183 8.9375 5.40149 8.9375 5.74683C8.9375 6.09229 9.21875 6.37183 9.5625 6.37183L11.2695 6.37183C11.6133 6.37183 11.8945 6.65234 11.8945 6.99683L11.8945 15.1702C11.8945 15.5148 11.6133 15.7952 11.2695 15.7952L1.875 15.7952C1.53125 15.7952 1.25 15.5148 1.25 15.1702L1.25 6.99683C1.25 6.65234 1.53125 6.37183 1.875 6.37183L3.58203 6.37183C3.92578 6.37183 4.20703 6.09229 4.20703 5.74683C4.20703 5.40149 3.92578 5.12183 3.58203 5.12183L1.875 5.12183C0.839844 5.12183 0 5.96313 0 6.99683L0 15.1702C0 16.204 0.839844 17.0452 1.875 17.0452L11.2695 17.0452C12.3047 17.0452 13.1445 16.204 13.1445 15.1702L13.1445 6.99683C13.1445 5.96265 12.3047 5.12183 11.2695 5.12183L11.2695 5.12183ZM4.24219 3.86023L5.96875 2.13391L5.96875 10.3623C5.96875 10.7073 6.24609 10.9873 6.59375 10.9873C6.9375 10.9873 7.21875 10.7073 7.21875 10.3623L7.21875 2.13391L8.94531 3.86023C9.06641 3.9823 9.22656 4.04309 9.38672 4.04309C9.54688 4.04309 9.70703 3.9823 9.82812 3.86023C10.0742 3.61646 10.0742 3.22021 9.82812 2.97644L7.03516 0.183105C6.79297 -0.0610352 6.39453 -0.0610352 6.15234 0.183105L3.35938 2.97644C3.11328 3.22021 3.11328 3.61646 3.35938 3.86023C3.60156 4.10437 3.99609 4.10437 4.24219 3.86023Z" fill="#000000" fill-opacity="1.000000" fill-rule="nonzero"/>
	<path id="Vector" d="M5.86719 2.23401L4.24219 3.86023C3.99609 4.10437 3.60156 4.10437 3.35938 3.86023C3.11328 3.61646 3.11328 3.22021 3.35938 2.97644L6.15234 0.183105C6.39453 -0.0610352 6.79297 -0.0610352 7.03516 0.183105L9.82812 2.97644C10.0742 3.22021 10.0742 3.61646 9.82812 3.86023C9.70703 3.9823 9.54688 4.04309 9.38672 4.04309C9.22656 4.04309 9.06641 3.9823 8.94531 3.86023L7.31641 2.23401L7.21875 2.13391L7.21875 10.3623C7.21875 10.7073 6.9375 10.9873 6.59375 10.9873C6.24609 10.9873 5.96875 10.7073 5.96875 10.3623L5.96875 2.13391L5.86719 2.23401ZM6.06641 10.3623L6.06641 1.89258L4.17188 3.78955Q4.09375 3.8667 4 3.90515Q3.91016 3.94336 3.80078 3.94336Q3.69141 3.94336 3.60156 3.90527Q3.50781 3.86682 3.42969 3.78943Q3.35156 3.71301 3.3125 3.62073Q3.27344 3.52759 3.27344 3.41833Q3.27344 3.3092 3.3125 3.21606Q3.35156 3.12366 3.42969 3.04712L6.22266 0.253784Q6.30078 0.176758 6.39453 0.138306Q6.48438 0.0999756 6.59375 0.0999756Q6.70312 0.0999756 6.79297 0.138062Q6.88672 0.176514 6.96484 0.253784L9.75781 3.04724Q9.83594 3.12366 9.875 3.21582Q9.91016 3.30896 9.91016 3.41833Q9.91016 3.52747 9.875 3.62061Q9.83594 3.71301 9.75781 3.78955Q9.68359 3.86572 9.58984 3.90417Q9.49609 3.94312 9.38672 3.94312Q9.27734 3.94312 9.18359 3.90417Q9.08984 3.86572 9.01562 3.78955L7.11719 1.89258L7.11719 10.3623Q7.11719 10.4709 7.07812 10.5638Q7.04297 10.6566 6.96484 10.7335Q6.88672 10.8103 6.79688 10.8488Q6.70312 10.8873 6.59375 10.8873Q6.48438 10.8873 6.39062 10.8488Q6.29688 10.8103 6.22266 10.7335Q6.14453 10.6566 6.10547 10.5638Q6.06641 10.4709 6.06641 10.3623ZM11.2695 5.12183L9.5625 5.12183C9.21875 5.12183 8.9375 5.40149 8.9375 5.74683C8.9375 6.09229 9.21875 6.37183 9.5625 6.37183L11.2695 6.37183C11.6133 6.37183 11.8945 6.65234 11.8945 6.99683L11.8945 15.1702C11.8945 15.5148 11.6133 15.7952 11.2695 15.7952L1.875 15.7952C1.53125 15.7952 1.25 15.5148 1.25 15.1702L1.25 6.99683C1.25 6.65234 1.53125 6.37183 1.875 6.37183L3.58203 6.37183C3.92578 6.37183 4.20703 6.09229 4.20703 5.74683C4.20703 5.40149 3.92578 5.12183 3.58203 5.12183L1.875 5.12183C0.839844 5.12183 0 5.96313 0 6.99683L0 15.1702C0 16.204 0.839844 17.0452 1.875 17.0452L11.2695 17.0452C12.3047 17.0452 13.1445 16.204 13.1445 15.1702L13.1445 6.99683C13.1445 5.96265 12.3047 5.12183 11.2695 5.12183ZM9.36328 5.26025Q9.45703 5.22192 9.5625 5.22192L11.2695 5.22192Q11.4688 5.22192 11.6562 5.26355Q11.8125 5.2981 11.9609 5.36145Q12.1055 5.42383 12.2383 5.50977Q12.3906 5.60999 12.5234 5.74231Q12.6562 5.87439 12.7578 6.02747Q12.8438 6.1593 12.9062 6.30664Q12.9688 6.45654 13.0039 6.61267Q13.0469 6.80017 13.0469 6.99683L13.0469 15.1702Q13.0469 15.366 13.0039 15.5527Q12.9688 15.7097 12.9062 15.8602Q12.8438 16.007 12.7578 16.1383Q12.6562 16.292 12.5234 16.4247Q12.3906 16.5571 12.2383 16.6573Q12.1055 16.7433 11.9609 16.8055Q11.8086 16.8693 11.6523 16.9039Q11.4648 16.9452 11.2695 16.9452L1.875 16.9452Q1.67969 16.9452 1.49219 16.9039Q1.33594 16.8693 1.18359 16.8055Q1.03906 16.7433 0.90625 16.6575Q0.753906 16.5571 0.621094 16.4247Q0.488281 16.292 0.386719 16.1383Q0.300781 16.007 0.238281 15.8602Q0.175781 15.7097 0.140625 15.5529Q0.101562 15.3661 0.101562 15.1702L0.101562 6.99683Q0.101562 6.80103 0.140625 6.61438Q0.175781 6.4574 0.238281 6.30676Q0.300781 6.16003 0.386719 6.02869Q0.488281 5.875 0.621094 5.74243Q0.753906 5.60986 0.90625 5.50952Q1.03906 5.42371 1.18359 5.36157Q1.33594 5.29773 1.49219 5.26306Q1.67969 5.22192 1.875 5.22192L3.58203 5.22192Q3.69141 5.22192 3.78516 5.26062Q3.875 5.29907 3.95312 5.37561Q4.02734 5.45203 4.06641 5.54431Q4.10547 5.63757 4.10547 5.74683Q4.10547 5.8562 4.06641 5.94946Q4.02734 6.04175 3.95312 6.11816Q3.875 6.1947 3.78516 6.23303Q3.69141 6.27185 3.58203 6.27185L1.875 6.27185Q1.72656 6.27185 1.59766 6.3241Q1.46875 6.3772 1.36328 6.4845Q1.25391 6.59167 1.20312 6.72107Q1.14844 6.84827 1.14844 6.99683L1.14844 15.1702Q1.14844 15.3188 1.20312 15.446Q1.25391 15.5754 1.36328 15.6826Q1.46875 15.7898 1.59766 15.843Q1.72656 15.8951 1.875 15.8951L11.2695 15.8951Q11.418 15.8951 11.5469 15.843Q11.6758 15.7898 11.7812 15.6826Q11.8906 15.5754 11.9414 15.446Q11.9961 15.3188 11.9961 15.1702L11.9961 6.99683Q11.9961 6.84827 11.9414 6.72107Q11.8906 6.59167 11.7812 6.4845Q11.6758 6.3772 11.5469 6.3241Q11.418 6.27185 11.2695 6.27185L9.5625 6.27185Q9.45703 6.27185 9.36328 6.2334Q9.26953 6.19507 9.19141 6.11816Q9.11719 6.04138 9.07812 5.94873Q9.03906 5.85583 9.03906 5.74683Q9.03906 5.63794 9.07812 5.54504Q9.11719 5.45239 9.19141 5.37561Q9.26953 5.29871 9.36328 5.26025Z" fill="#FFFFFF" fill-opacity="1.000000" fill-rule="evenodd"/>
</svg>
