<svg width="22" height="22" viewBox="0 0 22 22" fill="none" xmlns="http://www.w3.org/2000/svg">
<path d="M18.333 0.600098H3.31076C1.71595 0.602073 0.42385 1.89417 0.421875 3.48899V18.5112C0.42385 20.106 1.71595 21.3981 3.31076 21.4001H18.333C19.9278 21.3981 21.2199 20.106 21.2219 18.5112V3.48899C21.2199 1.89417 19.9278 0.602073 18.333 0.600098ZM20.0663 18.5112C20.0663 19.4684 19.2902 20.2445 18.333 20.2445H3.31076C2.35354 20.2445 1.57743 19.4684 1.57743 18.5112V3.48899C1.57743 2.53176 2.35354 1.75565 3.31076 1.75565H18.333C19.2902 1.75565 20.0663 2.53176 20.0663 3.48899V18.5112Z" fill="black"/>
<path d="M10.8207 5.22266C7.62971 5.22266 5.04297 7.8094 5.04297 11.0004C5.04297 14.1915 7.62971 16.7782 10.8207 16.7782C14.0118 16.7782 16.5985 14.1915 16.5985 11.0004C16.5951 7.81081 14.0104 5.22604 10.8207 5.22266ZM10.8207 15.6227C8.26786 15.6227 6.19852 13.5533 6.19852 11.0004C6.19852 8.44755 8.26786 6.37821 10.8207 6.37821C13.3736 6.37821 15.443 8.44755 15.443 11.0004C15.4401 13.5519 13.3722 15.6198 10.8207 15.6227Z" fill="black"/>
<path d="M17.1786 2.91113C16.2214 2.91113 15.4453 3.68724 15.4453 4.64447C15.4453 5.60169 16.2214 6.3778 17.1786 6.3778C18.1359 6.3778 18.912 5.60169 18.912 4.64447C18.912 3.68724 18.1359 2.91113 17.1786 2.91113ZM17.1786 5.22224C16.8596 5.22224 16.6009 4.96354 16.6009 4.64447C16.6009 4.32539 16.8596 4.06669 17.1786 4.06669C17.4977 4.06669 17.7564 4.32539 17.7564 4.64447C17.7564 4.96354 17.4977 5.22224 17.1786 5.22224Z" fill="black"/>
</svg>
