<svg width="19" height="21" viewBox="0 0 19 21" fill="none" xmlns="http://www.w3.org/2000/svg">
<path d="M18.4093 6.25715C18.4093 6.07281 18.2641 5.92199 18.0798 5.91641C18.063 5.91641 16.4598 5.87172 15.108 4.88859C13.9629 4.0507 13.544 2.15148 13.477 1.47559V1.3918C13.477 1.20746 13.3261 1.05664 13.1418 1.05664H10.0695C9.8852 1.05664 9.73438 1.20746 9.73438 1.3918V3.64293C9.73438 3.82727 9.8852 3.97809 10.0695 3.97809C10.2539 3.97809 10.4047 3.82727 10.4047 3.64293V1.72695H12.829C12.963 2.72684 13.4881 4.54227 14.7059 5.43043C15.8454 6.26273 17.1246 6.49734 17.7223 6.56438V8.9775C16.957 8.92723 15.0857 8.66469 13.3317 7.40227C13.2312 7.32965 13.0971 7.31848 12.9854 7.37434C12.8737 7.4302 12.8011 7.5475 12.8011 7.67039V14.6416C12.8011 16.6191 11.79 18.4177 10.0919 19.4511C9.93547 19.5461 9.88519 19.7528 9.98016 19.9092C10.0416 20.0153 10.1533 20.0712 10.265 20.0712C10.3265 20.0712 10.3823 20.0544 10.4382 20.0209C11.3431 19.4679 12.1028 18.6914 12.6335 17.7698C13.1809 16.8202 13.4658 15.7365 13.4658 14.6416V8.3016C15.622 9.62547 17.7893 9.66457 18.0518 9.66457C18.1412 9.66457 18.225 9.63105 18.2864 9.56402C18.3479 9.50258 18.387 9.4132 18.387 9.32941V6.33535C18.4093 6.31301 18.4093 6.28508 18.4093 6.25715Z" fill="black"/>
<path fill-rule="evenodd" clip-rule="evenodd" d="M9.54297 1.39197C9.54297 1.09994 9.78109 0.861816 10.0731 0.861816H13.1454C13.4374 0.861816 13.6755 1.09994 13.6755 1.39197V1.46596C13.7088 1.79047 13.8267 2.4111 14.0737 3.05131C14.3244 3.70095 14.6982 4.34451 15.2266 4.73127C15.8748 5.20262 16.5868 5.45119 17.1426 5.5815C17.6756 5.70643 18.0558 5.72055 18.082 5.72152C18.0831 5.72156 18.0836 5.72158 18.0834 5.72158H18.0893C18.3797 5.73038 18.6079 5.96839 18.6079 6.25732C18.6079 6.25827 18.608 6.25954 18.608 6.26111C18.6083 6.27812 18.6094 6.33048 18.5856 6.3879V9.32959C18.5856 9.46758 18.5244 9.60406 18.4309 9.69907C18.3298 9.80756 18.1936 9.85975 18.0554 9.85975C17.7908 9.85975 15.7634 9.82295 13.6644 8.64255V14.6418C13.6644 15.7703 13.3708 16.8876 12.806 17.8673C12.2589 18.8175 11.476 19.6176 10.5435 20.1875L10.5421 20.1883C10.4594 20.2379 10.3692 20.2663 10.2686 20.2663C10.0943 20.2663 9.91558 20.1793 9.81601 20.0088C9.66675 19.7608 9.74613 19.4354 9.9941 19.2847C11.6343 18.2866 12.6096 16.551 12.6096 14.6418V7.67057C12.6096 7.47302 12.7247 7.28863 12.9018 7.2001C13.0784 7.11178 13.2899 7.12927 13.4492 7.24417C15.0196 8.37447 16.6889 8.68459 17.5309 8.76612V6.7365C16.8657 6.64366 15.672 6.37511 14.5945 5.58815C13.9471 5.11593 13.4935 4.40557 13.1858 3.69858C12.9098 3.0644 12.7455 2.41984 12.6645 1.92213H10.6033V3.64311C10.6033 3.93514 10.3652 4.17326 10.0731 4.17326C9.78109 4.17326 9.54297 3.93514 9.54297 3.64311V1.39197ZM10.0731 1.25182C9.99648 1.25182 9.93297 1.31533 9.93297 1.39197V3.64311C9.93297 3.71975 9.99648 3.78326 10.0731 3.78326C10.1498 3.78326 10.2133 3.71975 10.2133 3.64311V1.53213H13.0032L13.0258 1.70122C13.0908 2.1859 13.2514 2.8719 13.5434 3.54294C13.8362 4.21568 14.2541 4.85712 14.8244 5.27306C15.9245 6.07656 17.1648 6.30541 17.7476 6.37077L17.9209 6.3902V9.18591L17.7131 9.17226C16.929 9.12075 15.0167 8.85286 13.2214 7.56071C13.1796 7.53054 13.1229 7.52557 13.0762 7.54892C13.0298 7.57211 12.9996 7.62233 12.9996 7.67057V14.6418C12.9996 16.6875 11.9529 18.5492 10.1968 19.6179C10.1327 19.6568 10.1112 19.7436 10.1504 19.8082L10.1525 19.8116C10.1761 19.8523 10.2202 19.8763 10.2686 19.8763C10.2908 19.8763 10.3122 19.8713 10.3409 19.8542C11.2178 19.3182 11.954 18.5655 12.4681 17.6726C12.9981 16.7532 13.2744 15.7031 13.2744 14.6418V7.95323L13.5714 8.1356C15.6827 9.43189 17.8075 9.46975 18.0554 9.46975C18.0947 9.46975 18.1248 9.4559 18.1463 9.43243L18.152 9.42618C18.1798 9.39842 18.1956 9.35772 18.1956 9.32959V6.25476L18.2161 6.23419C18.2055 6.16559 18.1479 6.11363 18.0775 6.11149C17.9641 6.10849 16.3612 6.03865 14.9969 5.04647C14.3804 4.59533 13.9717 3.87007 13.7099 3.19172C13.4469 2.51014 13.3216 1.84909 13.2865 1.49501L13.2855 1.48541V1.39197C13.2855 1.31533 13.222 1.25182 13.1454 1.25182H10.0731ZM18.2178 6.26832C18.2178 6.26842 18.2178 6.26841 18.2178 6.26832V6.26832Z" fill="black"/>
<path d="M10.1672 19.4198C9.08346 19.8894 9.08326 19.9269 7.48657 20.0996C4.38638 20.0996 1.56484 17.7474 1.56484 14.6472C1.56484 11.547 4.08969 9.02215 7.18988 9.02215H7.82668V11.4241H7.18988C5.41355 11.4241 3.9668 12.8709 3.9668 14.6472C3.9668 16.4235 5.41355 17.8703 7.18988 17.8703C8.96621 17.8703 10.413 16.4235 10.413 14.6472V3.06416C10.413 2.87982 10.2621 2.729 10.0778 2.729C9.89347 2.729 9.74265 2.87982 9.74265 3.06416V14.6416C9.74265 16.0493 8.59754 17.1944 7.18988 17.1944C5.78223 17.1944 4.63711 16.0493 4.63711 14.6416C4.63711 13.234 5.78223 12.0888 7.18988 12.0888H8.16183C8.34617 12.0888 8.49699 11.938 8.49699 11.7537V8.68141C8.49699 8.49708 8.34617 8.34626 8.16183 8.34626H7.18988C3.71543 8.34626 0.894531 11.1727 0.894531 14.6416C0.894531 18.1161 4.0177 20.7643 7.48657 20.7643C8.46157 20.7643 9.65324 20.5329 10.413 20.0342C10.5682 19.9323 10.6699 19.7717 10.6029 19.5985C10.5303 19.4365 10.3348 19.3472 10.1672 19.4198Z" fill="black"/>
<path fill-rule="evenodd" clip-rule="evenodd" d="M9.54734 3.06434C9.54734 2.7723 9.78547 2.53418 10.0775 2.53418C10.3695 2.53418 10.6077 2.7723 10.6077 3.06434V14.6474C10.6077 16.5314 9.07359 18.0655 7.18957 18.0655C5.30555 18.0655 3.77148 16.5314 3.77148 14.6474C3.77148 12.7633 5.30555 11.2293 7.18957 11.2293H7.63137V9.21733H7.18957C4.19707 9.21733 1.75953 11.6549 1.75953 14.6474C1.75953 17.6162 4.46609 19.8995 7.47583 19.9047C8.27017 19.8188 8.65195 19.7675 8.96852 19.6828C9.24382 19.6092 9.4712 19.5101 9.88543 19.3297C9.94875 19.3021 10.0164 19.2726 10.0893 19.241C10.3652 19.1215 10.669 19.2702 10.7805 19.5189L10.7847 19.5282C10.9007 19.828 10.7079 20.0739 10.5197 20.1974C9.71571 20.7251 8.48103 20.9595 7.48626 20.9595C3.92893 20.9595 0.699219 18.2422 0.699219 14.6418C0.699219 11.0653 3.60731 8.15143 7.18957 8.15143H8.16152C8.45356 8.15143 8.69168 8.38956 8.69168 8.68159V11.7539C8.69168 12.0459 8.45356 12.284 8.16152 12.284H7.18957C5.88961 12.284 4.8318 13.3418 4.8318 14.6418C4.8318 15.9417 5.88961 16.9996 7.18957 16.9996C8.48953 16.9996 9.54734 15.9417 9.54734 14.6418V3.06434ZM10.0775 2.92418C10.0009 2.92418 9.93734 2.9877 9.93734 3.06434V14.6418C9.93734 16.1571 8.70492 17.3896 7.18957 17.3896C5.67422 17.3896 4.4418 16.1571 4.4418 14.6418C4.4418 13.1264 5.67422 11.894 7.18957 11.894H8.16152C8.23816 11.894 8.30168 11.8305 8.30168 11.7539V8.68159C8.30168 8.60495 8.23816 8.54143 8.16152 8.54143H7.18957C3.82292 8.54143 1.08922 11.2805 1.08922 14.6418C1.08922 17.9903 4.10585 20.5695 7.48626 20.5695C8.44149 20.5695 9.59014 20.341 10.3057 19.8714C10.3623 19.8342 10.3985 19.7929 10.4158 19.7576C10.43 19.7285 10.4325 19.7028 10.4225 19.6738C10.3873 19.602 10.3024 19.5737 10.2444 19.5989C10.1727 19.6299 10.1054 19.6593 10.0419 19.687C9.63185 19.8658 9.37478 19.9779 9.06933 20.0596C8.7171 20.1538 8.30241 20.2076 7.50722 20.2936L7.49677 20.2947H7.48626C4.29978 20.2947 1.36953 17.8755 1.36953 14.6474C1.36953 11.4395 3.98168 8.82733 7.18957 8.82733H8.02137V11.6193H7.18957C5.52094 11.6193 4.16148 12.9787 4.16148 14.6474C4.16148 16.316 5.52094 17.6755 7.18957 17.6755C8.8582 17.6755 10.2177 16.316 10.2177 14.6474V3.06434C10.2177 2.9877 10.1541 2.92418 10.0775 2.92418Z" fill="black"/>
</svg>
