<svg width="30" height="17" viewBox="0 0 30 17" fill="none" xmlns="http://www.w3.org/2000/svg">
<path d="M27.5112 16.8839H23.9361C23.3862 16.8852 22.8664 16.6321 22.5282 16.1985L19.0424 11.752C18.886 11.5522 18.6202 11.4732 18.38 11.5557C18.1399 11.6379 17.9782 11.8631 17.9774 12.1169V13.9045C17.9774 15.5507 16.3759 16.8839 14.4022 16.8839C13.6306 16.8909 12.8732 16.6764 12.2199 16.2657C7.21454 13.0628 3.81808 9.01851 0.868741 2.74713C0.608851 2.19374 0.649875 1.54588 0.97741 1.02959C1.30494 0.513301 1.8736 0.200386 2.48503 0.199731H6.0602C6.7755 0.197986 7.42293 0.622843 7.70617 1.27966L8.10833 2.21818C8.71605 3.62805 9.53194 4.93884 10.5292 6.10627C10.5617 6.14118 10.6079 6.16038 10.6557 6.15842C10.6996 6.16257 10.7434 6.14795 10.776 6.11805C10.8087 6.08837 10.8272 6.04604 10.827 6.00196V3.6706C10.0092 3.37841 9.51994 2.5407 9.66679 1.68488C9.81365 0.829052 10.5545 0.202568 11.423 0.199731H16.1898C17.177 0.199731 17.9774 1.00013 17.9774 1.98732V6.15842C17.9778 6.42442 18.1546 6.65791 18.4105 6.73057C18.6665 6.80323 18.9395 6.6974 19.0798 6.47112L22.409 1.05621C22.7317 0.521811 23.3118 0.196458 23.9361 0.199731H27.5112C28.1717 0.19995 28.7782 0.56458 29.0885 1.14764C29.3987 1.7307 29.3621 2.43749 28.9933 2.98541L25.2394 8.19171C25.0878 8.40054 25.0878 8.68312 25.2394 8.89195L28.9636 14.0535C29.3547 14.5982 29.4081 15.3159 29.102 15.9125C28.7958 16.509 28.1816 16.8839 27.5112 16.8839ZM18.5733 10.3293C19.1232 10.3282 19.6427 10.5811 19.981 11.0147L23.4667 15.4612C23.5793 15.6063 23.7523 15.6916 23.9361 15.6921H27.5112C27.7355 15.6929 27.9413 15.5675 28.0434 15.3678C28.1458 15.1679 28.127 14.9279 27.9952 14.7461L24.2712 9.58455C23.82 8.95982 23.82 8.11643 24.2712 7.49169L28.0177 2.30023C28.0766 2.2064 28.1076 2.09795 28.1069 1.98732C28.1069 1.65825 27.8403 1.39138 27.5112 1.39138H23.9361C23.7294 1.3916 23.5378 1.49874 23.4296 1.6744L20.1001 7.08931C19.6833 7.77406 18.8616 8.09766 18.0897 7.88076C17.3179 7.66408 16.7851 6.95991 16.7857 6.15842V1.98732C16.7857 1.65825 16.5188 1.39138 16.1898 1.39138H11.423C11.0937 1.39138 10.827 1.65825 10.827 1.98732C10.827 2.31638 11.0937 2.58325 11.423 2.58325H12.0187V6.00196C12.0119 6.56735 11.6569 7.06989 11.126 7.26519C10.5953 7.46027 9.99913 7.3073 9.62773 6.88092C8.55435 5.6238 7.6754 4.21285 7.02098 2.69497L6.61118 1.75645C6.51801 1.53475 6.30067 1.39073 6.0602 1.39138H2.48503C2.28166 1.39247 2.0929 1.49721 1.98424 1.66916C1.87557 1.84111 1.86226 2.05649 1.94867 2.24066C4.83124 8.37043 7.9966 12.1468 12.8677 15.2676C13.3292 15.5502 13.861 15.6975 14.4022 15.6921C15.713 15.6921 16.7857 14.8877 16.7857 13.9045V12.1169C16.7857 11.1297 17.5859 10.3293 18.5733 10.3293Z" fill="black"/>
</svg>
