<svg width="28" height="21" viewBox="0 0 28 21" fill="none" xmlns="http://www.w3.org/2000/svg">
<path d="M22.3478 0.621582H5.90536C2.91183 0.621582 0.476562 3.06465 0.476562 6.0671V15.2327C0.476562 18.2357 2.91183 20.6782 5.90536 20.6782H22.3478C25.3413 20.6782 27.7766 18.2351 27.7766 15.2327V6.0671C27.7766 3.06465 25.3413 0.621582 22.3478 0.621582ZM26.6623 15.2332C26.6623 17.6217 24.7268 19.5644 22.3478 19.5644H5.90536C3.52636 19.5644 1.59085 17.6211 1.59085 15.2332V6.0671C1.59085 3.67918 3.52636 1.73587 5.90536 1.73587H22.3478C24.7268 1.73587 26.6623 3.67918 26.6623 6.0671V15.2332Z" fill="black"/>
<path d="M19.0616 10.4485L11.3424 5.92727C11.1708 5.82699 10.9574 5.82532 10.7841 5.92449C10.6109 6.02366 10.5039 6.20807 10.5039 6.40809V15.45C10.5039 15.6494 10.6109 15.8344 10.7836 15.9336C10.8694 15.9826 10.9652 16.0071 11.061 16.0071C11.1585 16.0071 11.2555 15.9815 11.3424 15.9308L19.0616 11.4107C19.2321 11.3109 19.3374 11.1276 19.3374 10.9299C19.3374 10.7321 19.2327 10.5482 19.0616 10.4485ZM11.6182 14.4777V7.37974L17.6777 10.9293L11.6182 14.4777Z" fill="black"/>
</svg>
