<svg width="18.000000" height="18.000000" viewBox="0 0 18 18" fill="none" xmlns="http://www.w3.org/2000/svg" xmlns:xlink="http://www.w3.org/1999/xlink">
	<desc>
			Created with Pixso.
	</desc>
	<defs/>
	<path id="Vector" d="M17.5547 3.66187C17.7969 3.66187 17.9961 3.46313 18 3.2207L18 0.445557C18 0.198486 17.8008 0 17.5547 0L14.7812 0C14.5352 0 14.3398 0.198486 14.3398 0.445557L14.3398 1.41187L3.66016 1.41187L3.66016 0.445557C3.66016 0.202881 3.46484 0.00439453 3.21875 0L0.445312 0C0.203125 0 0.00390625 0.198486 0 0.445557L0 3.2207C0 3.46313 0.199219 3.66187 0.445312 3.66187L1.41016 3.66187L1.41016 14.3381L0.445312 14.3381C0.203125 14.3381 0.00390625 14.5369 0 14.7793L0 17.5544C0 17.7971 0.199219 17.9956 0.445312 18L3.21875 18C3.46484 18 3.66016 17.8015 3.66016 17.5544L3.66016 16.5881L14.3398 16.5881L14.3398 17.5544C14.3398 17.7971 14.5352 17.9956 14.7812 18L17.5547 18C17.7969 18 17.9961 17.8015 18 17.5544L18 14.7793C18 14.5369 17.8008 14.3381 17.5547 14.3381L16.5898 14.3381L16.5898 3.66187L17.5547 3.66187ZM0.882812 2.7793L0.882812 0.882324L2.78125 0.882324L2.78125 2.7793L0.882812 2.7793ZM2.78125 17.1177L0.882812 17.1177L0.882812 15.2207L2.78125 15.2207L2.78125 17.1177ZM14.3398 14.7793L14.3398 15.7058L3.66016 15.7058L3.66016 14.7793C3.66016 14.5369 3.46484 14.3381 3.21875 14.3381L2.29297 14.3381L2.29297 3.66187L3.21875 3.66187C3.46484 3.66187 3.66016 3.46313 3.66016 3.2207L3.66016 2.29419L14.3398 2.29419L14.3398 3.2207C14.3398 3.46313 14.5352 3.66187 14.7812 3.66187L15.707 3.66187L15.707 14.3381L14.7812 14.3381C14.5352 14.3381 14.3398 14.5369 14.3398 14.7793ZM17.1172 15.2207L17.1172 17.1177L15.2188 17.1177L15.2188 15.2207L17.1172 15.2207ZM15.2188 2.7793L15.2188 0.882324L17.1172 0.882324L17.1172 2.7793L15.2188 2.7793Z" fill="#FFFFFF" fill-opacity="1.000000" fill-rule="nonzero"/>
</svg>
