<svg width="13.843750" height="13.846191" viewBox="0 0 13.8438 13.8462" fill="none" xmlns="http://www.w3.org/2000/svg" xmlns:xlink="http://www.w3.org/1999/xlink">
	<desc>
			Created with Pixso.
	</desc>
	<defs/>
	<path id="Vector" d="M13.7266 0.118652C13.6211 0.0131836 13.4688 -0.0258789 13.3242 0.0170898L0.914062 3.74023C0.367188 3.9043 0 4.39795 0 4.96924C0 5.53223 0.378906 6.03369 0.917969 6.18848L6.16016 7.68555L7.65625 12.9263C7.8125 13.4678 8.3125 13.8462 8.87891 13.8462C9.44922 13.8462 9.94141 13.4785 10.1055 12.9316L13.8281 0.521973C13.8711 0.379395 13.832 0.224121 13.7266 0.118652ZM0.8125 4.96875C0.8125 4.75879 0.945312 4.57764 1.14844 4.51709L12.0156 1.25635L6.37109 6.90186L1.14453 5.4082C0.949219 5.35254 0.8125 5.17188 0.8125 4.96875ZM9.32812 12.6987C9.26953 12.8999 9.08594 13.0347 8.87891 13.0347C8.67578 13.0347 8.49219 12.8984 8.4375 12.7036L6.94531 7.47559L12.5898 1.83008L9.32812 12.6987Z" fill="#000000" fill-opacity="1.000000" fill-rule="nonzero"/>
</svg>
