<svg width="16.921875" height="16.922852" viewBox="0 0 16.9219 16.9229" fill="none" xmlns="http://www.w3.org/2000/svg" xmlns:xlink="http://www.w3.org/1999/xlink">
	<desc>
			Created with Pixso.
	</desc>
	<defs>
		<clipPath id="clip11_370">
			<rect id="whatsapp 1" width="16.923079" height="16.923079" fill="white" fill-opacity="0"/>
		</clipPath>
	</defs>
	<rect id="whatsapp 1" width="16.923079" height="16.923079" fill="#FFFFFF" fill-opacity="0"/>
	<g clip-path="url(#clip11_370)">
		<path id="Vector" d="M12.4688 10.1318C12.3789 10.0771 12.2773 10.0146 12.1523 9.93408C12.0859 9.88867 12 9.82715 11.9062 9.76221C11.4414 9.42676 11.0859 9.18945 10.7852 9.18945C10.7148 9.18945 10.6484 9.20264 10.5859 9.22852C10.3203 9.33936 10.1055 9.63623 9.89453 9.92334C9.81641 10.0283 9.70703 10.1792 9.64062 10.2461C9.375 10.1938 8.81641 9.81592 8.21484 9.15723C7.60938 8.49805 7.26562 7.88721 7.21484 7.59863C7.27734 7.52539 7.41797 7.4043 7.51562 7.31982C7.77734 7.0918 8.04688 6.85547 8.14844 6.56787C8.28125 6.19873 8.03906 5.75635 7.66016 5.12451C7.60156 5.0249 7.54297 4.93115 7.50391 4.85693C7.42969 4.72266 7.37109 4.61182 7.32031 4.51367C7.11328 4.11182 6.97656 3.84619 6.46484 3.84619C6.12891 3.84619 5.65625 4.19043 5.33594 4.53223C4.875 5.02832 4.61719 5.60156 4.61719 6.14697C4.61719 7.62842 5.375 9.32617 6.69531 10.8071C6.69531 10.8096 6.69922 10.8101 6.70312 10.8125C8.05859 12.2529 9.61328 13.0771 10.9688 13.0771L10.9727 13.0771C11.4688 13.0771 11.9961 12.8008 12.4492 12.2939C12.7617 11.9448 13.0781 11.4331 13.0781 11.0693C13.0781 10.5078 12.8359 10.3584 12.4688 10.1318ZM10.9688 12.3115C9.81641 12.3105 8.40625 11.5459 7.19922 10.2661C6.02734 8.94873 5.32422 7.40967 5.32422 6.14795C5.32422 5.38477 6.23047 4.65918 6.46875 4.61914C6.51953 4.61963 6.54297 4.62256 6.55469 4.625C6.58594 4.66455 6.64844 4.78516 6.70312 4.89307C6.75391 4.99072 6.81641 5.11182 6.89844 5.25635C6.94531 5.34326 7.00391 5.44336 7.07031 5.54883C7.1875 5.74902 7.42969 6.15088 7.47266 6.32227C7.40234 6.42773 7.19141 6.61182 7.07422 6.71631C6.76562 6.98242 6.50391 7.2124 6.50391 7.53711C6.50391 8.32227 7.42969 9.39404 7.71484 9.7041C7.99609 10.0137 8.98047 11.0249 9.69922 11.0254C9.99609 11.0244 10.207 10.7378 10.4492 10.4058C10.543 10.2744 10.7148 10.0425 10.8125 9.96826C10.9688 10.0127 11.3359 10.2769 11.5195 10.4082C11.6172 10.4775 11.707 10.543 11.7891 10.5957C11.918 10.6826 12.0312 10.751 12.1211 10.8057C12.2188 10.8662 12.3281 10.9346 12.3672 10.9688C12.3672 10.9819 12.3711 11.0093 12.3711 11.0625C12.3359 11.3213 11.668 12.3105 10.9688 12.3115Z" fill="#000000" fill-opacity="1.000000" fill-rule="nonzero"/>
		<path id="Vector" d="M16.1523 8.43701C16.125 6.41455 15.3047 4.50342 13.8398 3.05566C12.3477 1.58105 10.375 0.769043 8.29297 0.769043C6.27734 0.769043 4.39453 1.53418 2.98828 2.92334C1.74219 4.15576 0.976562 5.7998 0.835938 7.55273C0.699219 9.21533 1.12891 10.8979 2.04297 12.313L0.792969 15.6494C0.742188 15.7896 0.777344 15.9473 0.886719 16.0503C0.957031 16.1177 1.05469 16.1538 1.14844 16.1538C1.19922 16.1538 1.25 16.1392 1.29688 16.1191L4.55078 14.7515C5.79297 15.5151 7.21484 15.9087 8.67188 15.9087L8.67188 15.9087C10.6836 15.9087 12.5664 15.1528 13.9727 13.7642C15.4062 12.3491 16.1797 10.4629 16.1523 8.43701ZM13.4375 13.2437C12.1758 14.4917 10.4805 15.1787 8.67188 15.1787C7.29297 15.1787 5.95312 14.7803 4.79688 14.0264C4.73047 13.9854 4.66016 13.9648 4.58594 13.9648C4.53516 13.9648 4.48438 13.9746 4.4375 13.9941L1.80859 15.0967L2.82031 12.3955C2.86328 12.2822 2.84766 12.1562 2.77734 12.0562C0.917969 9.33545 1.23438 5.7168 3.52734 3.45264C4.78906 2.20459 6.48047 1.51758 8.29297 1.51758C10.1758 1.51758 11.9531 2.25146 13.3047 3.58496C14.6289 4.89355 15.3711 6.62061 15.3945 8.44678C15.418 10.269 14.7227 11.9727 13.4375 13.2437Z" fill="#000000" fill-opacity="1.000000" fill-rule="nonzero"/>
	</g>
</svg>
